<?xml version="1.0" encoding="iso-8859-1"?>
<!-- Generator: Adobe Illustrator 19.0.0, SVG Export Plug-In . SVG Version: 6.00 Build 0)  -->
<svg version="1.1" id="Layer_1" xmlns="http://www.w3.org/2000/svg" xmlns:xlink="http://www.w3.org/1999/xlink" x="0px" y="0px"
	 viewBox="0 0 511.999 511.999" style="enable-background:new 0 0 511.999 511.999;" xml:space="preserve">
<g>
	<g>
		<path d="M394.671,71.624H284.74c-21.682,0-40.845,13.82-47.698,34.384l-18.998,57.001c-5.14,15.403-7.748,31.454-7.748,47.703
			v28.525H444.73V121.909h0.001C444.731,94.181,422.399,71.624,394.671,71.624z M344.387,205.715H244.021
			c0.464-10.923,2.357-21.704,5.822-32.104l0.472-1.419h94.073V205.715z" fill="#d9d9d9"/>
	</g>
</g>
<g>
	<g>
		<path d="M428.194,272.761H227.057c-18.879,0-36.482,6.349-50.508,16.92c0-57.571,0-44.981,0-102.374
			c0-16.537-21.295-23.019-30.462-9.331L7.041,385.469c-17.111,22.461-1.102,54.906,27.215,54.906h92.231
			c15.878,0,29.888-7.542,39.11-19.069v0.115c0.53-0.665,2.566-3.413,3.325-4.616l0.001-0.001
			c15.082,14.56,35.56,23.571,58.132,23.571h201.137c46.213,0,83.807-37.594,83.807-83.807S474.407,272.761,428.194,272.761z
			 M227.057,373.329c-9.257,0-16.761-7.505-16.761-16.761c0-9.257,7.505-16.761,16.761-16.761c9.257,0,16.761,7.505,16.761,16.761
			C243.818,365.825,236.314,373.329,227.057,373.329z M294.102,373.329c-9.257,0-16.761-7.505-16.761-16.761
			c0-9.257,7.505-16.761,16.761-16.761s16.761,7.505,16.761,16.761C310.864,365.825,303.359,373.329,294.102,373.329z
			 M361.148,373.329c-9.257,0-16.761-7.505-16.761-16.761c0-9.257,7.505-16.761,16.761-16.761s16.761,7.505,16.761,16.761
			C377.909,365.825,370.405,373.329,361.148,373.329z M428.194,373.329c-9.257,0-16.761-7.505-16.761-16.761
			c0-9.257,7.505-16.761,16.761-16.761c9.257,0,16.761,7.505,16.761,16.761C444.955,365.825,437.45,373.329,428.194,373.329z" fill="#d9d9d9"/>
	</g>
</g>
<g>
</g>
<g>
</g>
<g>
</g>
<g>
</g>
<g>
</g>
<g>
</g>
<g>
</g>
<g>
</g>
<g>
</g>
<g>
</g>
<g>
</g>
<g>
</g>
<g>
</g>
<g>
</g>
<g>
</g>
</svg>
