<?xml version="1.0" encoding="utf-8"?>
<!-- Generator: Adobe Illustrator 23.0.5, SVG Export Plug-In . SVG Version: 6.00 Build 0)  -->
<svg version="1.1" id="Layer_1" xmlns="http://www.w3.org/2000/svg" xmlns:xlink="http://www.w3.org/1999/xlink" x="0px" y="0px"
	 viewBox="0 0 128 128" style="enable-background:new 0 0 128 128;" xml:space="preserve">
<style type="text/css">
	.st0{fill:#FFFFFF;}
</style>
<g id="Icon_feather-image" transform="translate(-0.5 -0.5)">
	<path id="Path_1845" class="st0" d="M17.8,0.5h93.3c9.6,0,17.3,7.8,17.3,17.3v93.3c0,9.6-7.8,17.3-17.3,17.3H17.8
		c-9.6,0-17.3-7.8-17.3-17.3V17.8C0.5,8.3,8.3,0.5,17.8,0.5z M111.2,120.5c5.2,0,9.3-4.2,9.3-9.3V17.8c0-5.2-4.2-9.3-9.3-9.3H17.8
		c-5.2,0-9.3,4.2-9.3,9.3v93.3c0,5.2,4.2,9.3,9.3,9.3L111.2,120.5L111.2,120.5z"/>
	<path id="Path_1846" class="st0" d="M41.2,27.2c7.7,0,14,6.3,14,14s-6.3,14-14,14s-14-6.3-14-14C27.2,33.4,33.4,27.2,41.2,27.2z
		 M41.2,47.2c3.3,0,6-2.7,6-6s-2.7-6-6-6s-6,2.7-6,6S37.9,47.2,41.2,47.2z"/>
	<path id="Path_1847" class="st0" d="M17.8,128.5c-2.2,0-4-1.8-4-4c0-1.1,0.4-2.1,1.2-2.8l73.3-73.3c1.6-1.6,4.1-1.6,5.7,0l0,0
		l33.3,33.3c1.6,1.6,1.6,4.1,0,5.7c-1.6,1.6-4.1,1.6-5.7,0l0,0L91.2,56.8l-70.5,70.5C19.9,128.1,18.9,128.5,17.8,128.5z"/>
</g>
</svg>
