<?xml version="1.0" encoding="utf-8"?>
<!-- Generator: Adobe Illustrator 25.2.1, SVG Export Plug-In . SVG Version: 6.00 Build 0)  -->
<svg version="1.1" id="Layer_1" xmlns="http://www.w3.org/2000/svg" xmlns:xlink="http://www.w3.org/1999/xlink" x="0px" y="0px"
	 viewBox="0 0 17.3 17.3" style="enable-background:new 0 0 17.3 17.3;" xml:space="preserve">
<style type="text/css">
	.st0{fill:#045C5C;}
	.st1{fill:#FFFFFF;}
</style>
<circle class="st0" cx="8.7" cy="8.7" r="8.7"/>
<g>
	<g>
		<path class="st1" d="M10.9,2.8H6.5C6,2.8,5.5,3.2,5.5,3.7v9c0,0.4,0.2,0.7,0.6,0.8c0.1,0,0.2,0.1,0.3,0.1h4.4
			c0.5,0,0.9-0.4,0.9-0.9v-9C11.8,3.2,11.4,2.8,10.9,2.8z M10.9,11.7c0,0.1-0.1,0.2-0.2,0.2H6.6c-0.1,0-0.2-0.1-0.2-0.2V4.3
			c0-0.1,0.1-0.2,0.2-0.2h4.1c0.1,0,0.2,0.1,0.2,0.2V11.7z M8.2,12.8c0-0.3,0.2-0.5,0.5-0.5c0.3,0,0.5,0.2,0.5,0.5
			c0,0.3-0.2,0.5-0.5,0.5C8.4,13.3,8.2,13,8.2,12.8z M9.6,3.7L9.6,3.7c0,0.1-0.1,0.2-0.1,0.2H7.9c-0.1,0-0.1-0.1-0.1-0.1V3.7
			c0-0.1,0.1-0.1,0.1-0.1h1.6C9.5,3.5,9.6,3.6,9.6,3.7z"/>
		<path class="st1" d="M10.9,3.1H6.5c-0.3,0-0.6,0.3-0.6,0.6v9c0,0.3,0.2,0.5,0.4,0.6c0.1,0,0.2,0.1,0.2,0.1h4.4
			c0.3,0,0.6-0.3,0.6-0.6v-9C11.5,3.4,11.2,3.1,10.9,3.1z M7.8,3.7c0-0.1,0.1-0.1,0.1-0.1h1.6c0.1,0,0.1,0.1,0.1,0.1v0.1
			c0,0.1-0.1,0.1-0.1,0.1H7.9C7.8,3.8,7.8,3.8,7.8,3.7L7.8,3.7z M8.7,13.3c-0.3,0-0.5-0.2-0.5-0.5c0-0.3,0.2-0.5,0.5-0.5
			c0.3,0,0.5,0.2,0.5,0.5C9.2,13,9,13.3,8.7,13.3z M10.9,11.7c0,0.1-0.1,0.2-0.2,0.2H6.6c-0.1,0-0.2-0.1-0.2-0.2V4.3
			c0-0.1,0.1-0.2,0.2-0.2h4.1c0.1,0,0.2,0.1,0.2,0.2V11.7z"/>
	</g>
	<g>
		<polygon class="st1" points="7.7,7.7 7,7.7 8.8,9.4 9.4,9.4 		"/>
		<polygon class="st1" points="9,8.1 10,7 9.3,7 9.3,7 7.5,7 7,7.5 8.8,7.5 8.3,8.1 9.7,9.4 10.3,9.4 		"/>
	</g>
</g>
</svg>
