<svg xmlns="http://www.w3.org/2000/svg" xmlns:xlink="http://www.w3.org/1999/xlink" width="55.397" height="59.58" viewBox="0 0 55.397 59.58">
  <defs>
    <linearGradient id="linear-gradient" x1="0.5" x2="0.5" y2="1" gradientUnits="objectBoundingBox">
      <stop offset="0" stop-color="#51dba5"/>
      <stop offset="1" stop-color="#30a6d3"/>
    </linearGradient>
  </defs>
  <g id="Layer_2" data-name="Layer 2" transform="translate(-0.397)">
    <g id="Object" transform="translate(0 0)">
      <path id="Path_2135" data-name="Path 2135" d="M40.061,33.6,33.6,40.75V52.805c0,14.219,9.711,26.633,24.145,33.274,14.433-6.641,24.146-19.055,24.146-33.274V40.654L75.434,33.6Z" transform="translate(-30.047 -30.047)" fill="url(#linear-gradient)"/>
      <path id="Path_2136" data-name="Path 2136" d="M45.339,0H10.062A3.643,3.643,0,0,0,7.354,1.2L.908,8.348A3.52,3.52,0,0,0,0,10.7V22.759C0,37.822,10.023,51.8,26.16,59.242a3.677,3.677,0,0,0,3.077,0C45.373,51.8,55.4,37.816,55.4,22.759V10.607a3.52,3.52,0,0,0-.926-2.373L48.032,1.18A3.645,3.645,0,0,0,45.339,0Zm6.444,22.759c0,14.219-9.686,26.633-24.08,33.274C13.3,49.392,3.619,36.978,3.619,22.759V10.7l6.443-7.15H45.339l6.444,7.054Z" transform="translate(0.397 0)" fill="#fff"/>
    </g>
  </g>
</svg>
