<svg xmlns="http://www.w3.org/2000/svg" width="503" height="99" viewBox="0 0 503 99">
  <defs>
    <style>
      .cls-1 {
        fill: #b85eee;
      }

      .cls-2 {
        fill: #fff;
        font-size: 48px;
        font-family: Poppins-Medium, Poppins;
        font-weight: 500;
      }

      .cls-3, .cls-4 {
        fill: none;
        stroke-linecap: round;
      }

      .cls-4 {
        stroke: #fff;
        stroke-linejoin: round;
        stroke-width: 4px;
      }

      .cls-5, .cls-6 {
        stroke: none;
      }

      .cls-6 {
        fill: #fff;
      }
    </style>
  </defs>
  <g id="Group_6793" data-name="Group 6793" transform="translate(-15364 17389)">
    <rect id="Rectangle_2482" data-name="Rectangle 2482" class="cls-1" width="503" height="99" rx="49.5" transform="translate(15364 -17389)"/>
    <text id="On_hold" data-name="On hold" class="cls-2" transform="translate(15472 -17323)"><tspan x="0" y="0">On hold</tspan></text>
    <g id="Icon_feather-pause-circle" data-name="Icon feather-pause-circle" transform="translate(15393 -17368)">
      <g id="Path_1616" data-name="Path 1616" class="cls-3">
        <path class="cls-5" d="M55,29A26,26,0,1,1,29,3,26,26,0,0,1,55,29Z"/>
        <path class="cls-6" d="M 28.99999809265137 51 C 31.97174263000488 51 34.85246658325195 50.41887664794922 37.56216430664063 49.27277755737305 C 40.18143081665039 48.16490936279297 42.53461074829102 46.57807540893555 44.55634307861328 44.55634307861328 C 46.57807540893555 42.53461074829102 48.16490936279297 40.18143081665039 49.27277755737305 37.56216430664063 C 50.41887664794922 34.85246658325195 51 31.97174263000488 51 28.99999809265137 C 51 26.02825355529785 50.41887664794922 23.14753150939941 49.27277755737305 20.43783187866211 C 48.16490936279297 17.81856536865234 46.57807540893555 15.46538734436035 44.55634307861328 13.44365406036377 C 42.53461074829102 11.42192077636719 40.18143081665039 9.835086822509766 37.56216430664063 8.72722053527832 C 34.85246658325195 7.581120491027832 31.97174263000488 6.999998092651367 28.99999809265137 6.999998092651367 C 26.02825355529785 6.999998092651367 23.14753150939941 7.581120491027832 20.43783187866211 8.72722053527832 C 17.81856536865234 9.835086822509766 15.46538734436035 11.42192077636719 13.44365406036377 13.44365406036377 C 11.42192077636719 15.46538734436035 9.835086822509766 17.81856536865234 8.72722053527832 20.43783187866211 C 7.581120491027832 23.14753150939941 6.999998092651367 26.02825355529785 6.999998092651367 28.99999809265137 C 6.999998092651367 31.97174263000488 7.581120491027832 34.85246658325195 8.72722053527832 37.56216430664063 C 9.835086822509766 40.18143081665039 11.42192077636719 42.53461074829102 13.44365406036377 44.55634307861328 C 15.46538734436035 46.57807540893555 17.81856536865234 48.16490936279297 20.43783187866211 49.27277755737305 C 23.14753150939941 50.41887664794922 26.02825355529785 51 28.99999809265137 51 M 28.99999809265137 55 C 14.64059829711914 55 2.999998092651367 43.35939788818359 2.999998092651367 28.99999809265137 C 2.999998092651367 14.64059829711914 14.64059829711914 2.999998092651367 28.99999809265137 2.999998092651367 C 43.35939788818359 2.999998092651367 55 14.64059829711914 55 28.99999809265137 C 55 43.35939788818359 43.35939788818359 55 28.99999809265137 55 Z"/>
      </g>
      <path id="Path_1617" data-name="Path 1617" class="cls-4" d="M15,29.1V13.5" transform="translate(8.8 7.7)"/>
      <path id="Path_1618" data-name="Path 1618" class="cls-4" d="M21,29.1V13.5" transform="translate(13.2 7.7)"/>
    </g>
  </g>
</svg>
