<?xml version="1.0" encoding="utf-8"?>
<!-- Generator: Adobe Illustrator 25.2.1, SVG Export Plug-In . SVG Version: 6.00 Build 0)  -->
<svg version="1.1" id="Layer_1" xmlns="http://www.w3.org/2000/svg" xmlns:xlink="http://www.w3.org/1999/xlink" x="0px" y="0px"
	 viewBox="0 0 17.3 17.3" style="enable-background:new 0 0 17.3 17.3;" xml:space="preserve">
<style type="text/css">
	.st0{fill:#045C5C;}
	.st1{fill:#FFFFFF;}
</style>
<circle class="st0" cx="8.7" cy="8.7" r="8.7"/>
<g>
	<g>
		<g>
			<g>
				<path class="st1" d="M12.9,5.3c0,0.1-0.1,0.2-0.2,0.2H4.4c-0.2,0-0.3,0.1-0.3,0.3v5.1L3.8,11c0,0,0,0,0,0V5.8
					c0-0.3,0.3-0.6,0.6-0.6h8.4C12.9,5.2,12.9,5.2,12.9,5.3z"/>
			</g>
			<g>
				<g>
					<polygon class="st1" points="12.4,5.8 12.6,5.3 12.4,4.9 13.6,5.3 					"/>
				</g>
			</g>
		</g>
		<g>
			<g>
				<path class="st1" d="M13.6,6.3v5.2c0,0.3-0.3,0.6-0.6,0.6H4.6c-0.1,0-0.2-0.1-0.2-0.2c0-0.1,0.1-0.2,0.2-0.2H13
					c0.2,0,0.3-0.1,0.3-0.3V6.4L13.6,6.3C13.6,6.3,13.6,6.3,13.6,6.3z"/>
			</g>
			<g>
				<g>
					<polygon class="st1" points="4.9,11.5 4.7,12 4.9,12.5 3.8,12 					"/>
				</g>
			</g>
		</g>
	</g>
	<g>
		<polygon class="st1" points="6.7,7.6 5.4,7.6 8.9,11.1 10.2,11.1 		"/>
		<polygon class="st1" points="9.3,8.4 11.3,6.3 10,6.3 10,6.3 6.3,6.3 5.4,7.2 9.1,7.2 7.9,8.4 10.7,11.1 12,11.1 		"/>
	</g>
</g>
</svg>
