<?xml version="1.0" encoding="utf-8"?>
<!-- Generator: Adobe Illustrator 25.2.1, SVG Export Plug-In . SVG Version: 6.00 Build 0)  -->
<svg version="1.1" id="Layer_1" xmlns="http://www.w3.org/2000/svg" xmlns:xlink="http://www.w3.org/1999/xlink" x="0px" y="0px"
	 viewBox="0 0 17.3 17.3" style="enable-background:new 0 0 17.3 17.3;" xml:space="preserve">
<style type="text/css">
	.st0{fill:#045C5C;}
	.st1{fill:#FFFFFF;}
</style>
<circle class="st0" cx="8.7" cy="8.7" r="8.7"/>
<g>
	<g>
		<g>
			<path class="st1" d="M13.1,4.6H4.3C4,4.6,3.9,4.7,3.9,5v6.3c0.8,0,1.6,0,2.5,0c0.3,0,0.6,0.1,0.8,0.4c0.1,0.1,0.2,0.1,0.3,0.1
				c0.7,0,1.4,0,2.2,0c0.2,0,0.4,0,0.5-0.2c0.2-0.2,0.4-0.3,0.6-0.3c0.8,0,1.6,0,2.4,0h0.2V5C13.4,4.7,13.4,4.6,13.1,4.6z
				 M12.5,10.4c0,0.1,0,0.1-0.1,0.1H5c-0.1,0-0.1,0-0.1-0.1V5.5c0-0.1,0-0.1,0.1-0.1h7.4c0.1,0,0.1,0,0.1,0.1V10.4z"/>
			<path class="st1" d="M3.2,11.8c0.1,0,0.1,0,0.1,0c1,0,2.1,0,3.1,0c0.1,0,0.2,0,0.3,0.1c0.2,0.3,0.5,0.4,0.8,0.4
				c0.7,0,1.4,0,2.2,0c0.3,0,0.5-0.1,0.7-0.3c0.1-0.2,0.3-0.2,0.5-0.2c1,0,2,0,3,0c0.1,0,0.1,0,0.2,0c0.1,0.6-0.2,1-0.8,1
				c-3.1,0-6.2,0-9.3,0C3.5,12.7,3.1,12.4,3.2,11.8z"/>
		</g>
	</g>
	<g>
		<polygon class="st1" points="7.4,7.2 6.6,7.2 8.8,9.4 9.6,9.4 		"/>
		<polygon class="st1" points="9,7.7 10.3,6.4 9.5,6.4 9.5,6.4 7.2,6.4 6.6,7 8.9,7 8.2,7.7 9.9,9.4 10.8,9.4 		"/>
	</g>
</g>
</svg>
