<svg version="1.1" id="_x31_" xmlns="http://www.w3.org/2000/svg" xmlns:xlink="http://www.w3.org/1999/xlink" x="0px" y="0px"
	 viewBox="0 0 1062.1 192.8" style="enable-background:new 0 0 1062.1 192.8;" xml:space="preserve">
<style type="text/css">
	.st0{fill:#6D6E70;}
	.st1{fill:#4DBC93;}
</style>
<g>
	<g>
		<polygon class="st0" points="48.8,56.7 0,56.7 127.8,183.8 176.9,183.8 		"/>
		<polygon class="st1" points="142.1,84.9 216.8,9 167.8,9 167.6,9.2 34.5,9.7 0,44.2 133.6,43.8 93.3,84.9 192.9,183.8 242,183.8 
					"/>
	</g>
	<g>
		<g>
			<path class="st1" d="M406.7,57.7c12.2,0,22.6,3.9,31.3,11.8c8.7,7.9,13,17.3,13,28.4c0,10.2-3.7,19.1-11.2,26.7
				c-7.5,7.4-16.8,11.7-28,13l41.1,46.2h-40L374.8,138h-57.5v45.7h-34.4V57.7H406.7z M317.3,110.2l86.1,0.1c4,0,7.3-1.2,9.7-3.5
				c2.6-2.4,3.8-5.3,3.8-8.8c0.1-3.7-1.2-6.6-3.8-8.8c-2.4-2.5-5.6-3.6-9.7-3.4h-86.1V110.2z"/>
			<path class="st1" d="M578.1,57.7l80.1,126.1h-37.1l-17.4-27.6h-85.3l-17.6,27.6h-37l80.1-126.1H578.1z M535.3,129.5h51.4
				L561.1,89L535.3,129.5z"/>
			<path class="st1" d="M703.7,57.7v126.1h-34.4V57.7H703.7z"/>
			<path class="st1" d="M842.6,57.7c11.6,0,21.4,3.7,29.5,11.1c8.1,7.4,12.2,16.4,12.2,27v0.6h-33.5c0.2-0.4,0.2-0.6,0.1-0.6
				c0-2.8-1-5.1-3.1-6.9c-2-2-4.5-2.9-7.6-2.8h-71.7c-2.9-0.2-5.5,0.8-7.5,2.9c-2,1.8-3,4.1-3,6.8c0.1,2.7,1.1,5,3.1,6.9
				s4.5,2.9,7.5,2.9c8.5,0,21.5,0,39.2-0.1c17.7-0.2,30.7-0.2,39.1,0c12-0.1,22.1,3.8,30.4,11.5c8.5,7.6,12.7,16.8,12.5,27.7
				c0.1,10.9-4.1,20.1-12.6,27.7c-8.2,7.6-18.3,11.4-30.3,11.4h-83.5c-11.8,0-21.9-3.8-30.4-11.4c-8.3-7.6-12.5-16.8-12.5-27.7h32.2
				v0.2c0,3.1,1.2,5.7,3.6,7.9c2.4,2.2,5.2,3.3,8.6,3.3h78.8c3.4-0.2,6.3-1.3,8.7-3.2c2.3-2.2,3.5-4.8,3.5-7.8
				c0-3.1-1.2-5.8-3.6-7.9c-2.4-2.2-5.2-3.3-8.6-3.3h-81.3c-11.5-0.1-21.4-3.8-29.5-11.1c-8.1-7.5-12.2-16.4-12.2-26.9
				c0-10.6,4-19.4,12.2-26.6c8-7.3,17.9-11.1,29.5-11.5H842.6z"/>
			<path class="st1" d="M1062.1,57.7v28.1H940.8v20.6h105.1V134H940.8v21.7h121.3v28.1H906.4V57.7H1062.1z"/>
		</g>
		<rect x="520.1" y="21.4" class="st0" width="32.9" height="20.1"/>
		<rect x="569.1" y="21.4" class="st0" width="32.9" height="20.1"/>
		<g>
			<path class="st0" d="M334.5,9v8.3h-36.7c-1.3,0-2.5,0.4-3.4,1.3c-0.9,0.8-1.4,1.8-1.4,3.1v11.9c0,1.2,0.5,2.2,1.4,3.1
				c0.9,0.8,2.1,1.2,3.4,1.2h27.9v-5.8H313v-7.8h22.8v21.9h-41c-3.3,0-6.1-1.1-8.5-3.2c-2.3-2.1-3.5-4.7-3.5-7.7V19.9
				c0-3,1.2-5.6,3.5-7.7c2.3-2.1,5.2-3.2,8.5-3.2H334.5z"/>
			<path class="st0" d="M390.8,9v8.3H355v6.1h31v8.1h-31v6.4h35.8v8.3h-45.9V9H390.8z"/>
			<path class="st0" d="M440.8,9c3.3,0,6.2,1.1,8.5,3.2c2.3,2.1,3.5,4.7,3.5,7.7v15.5c0,3-1.1,5.6-3.5,7.7c-2.3,2.1-5.1,3.2-8.5,3.2
				h-29.1c-3.3,0-6.1-1.1-8.5-3.2c-2.3-2.1-3.5-4.7-3.5-7.7V19.9c0-3,1.2-5.6,3.5-7.7c2.3-2.1,5.2-3.2,8.5-3.2H440.8z M411.4,18.6
				c-0.9,0.8-1.4,1.8-1.4,3.1v11.9c0,1.2,0.5,2.2,1.4,3.1c0.9,0.8,2.1,1.2,3.4,1.2h23.1c1.4-0.1,2.5-0.5,3.4-1.3
				c0.9-0.9,1.4-1.9,1.4-3.1V21.6c0-1.2-0.5-2.3-1.4-3.1c-0.9-0.9-2-1.3-3.4-1.2h-23.1C413.4,17.3,412.3,17.7,411.4,18.6z"/>
		</g>
	</g>
</g>
</svg>