<?xml version="1.0" encoding="utf-8"?>
<!-- Generator: Adobe Illustrator 25.0.0, SVG Export Plug-In . SVG Version: 6.00 Build 0)  -->
<svg version="1.1" id="_x31_" xmlns="http://www.w3.org/2000/svg" xmlns:xlink="http://www.w3.org/1999/xlink" x="0px" y="0px"
	 viewBox="0 0 854.1 154.3" style="enable-background:new 0 0 854.1 154.3;" xml:space="preserve">
<style type="text/css">
	.st0{fill:#848484;}
	.st1{fill:url(#SVGID_1_);}
	.st2{fill:url(#SVGID_2_);}
	.st3{fill:url(#SVGID_3_);}
	.st4{fill:url(#SVGID_4_);}
	.st5{fill:url(#SVGID_5_);}
	.st6{fill:url(#SVGID_6_);}
</style>
<g>
	<g>
		<polygon class="st0" points="39.2,45.2 0,45.2 102.7,147.3 142.1,147.3 		"/>
		<linearGradient id="SVGID_1_" gradientUnits="userSpaceOnUse" x1="97.2056" y1="6.8903" x2="97.2056" y2="147.2892">
			<stop  offset="0" style="stop-color:#0BFFB0"/>
			<stop  offset="1" style="stop-color:#009096"/>
		</linearGradient>
		<polygon class="st1" points="114.2,67.9 174.2,6.9 134.8,6.9 134.7,7 27.7,7.5 0,35.2 107.4,34.9 75,67.9 155,147.3 194.4,147.3 
					"/>
	</g>
	<g>
		<g>
			<linearGradient id="SVGID_2_" gradientUnits="userSpaceOnUse" x1="295.5041" y1="45.9881" x2="295.5041" y2="147.2917">
				<stop  offset="0" style="stop-color:#0BFFB0"/>
				<stop  offset="1" style="stop-color:#009096"/>
			</linearGradient>
			<path class="st2" d="M326.7,46c9.8,0,18.2,3.2,25.1,9.5c7,6.3,10.4,13.9,10.4,22.8c0,8.2-3,15.4-9,21.4
				c-6,5.9-13.5,9.4-22.5,10.4l33,37.1h-32.2l-30.5-36.8h-46.2v36.8h-27.7V46H326.7z M254.9,88.2l69.1,0.1c3.3,0,5.8-0.9,7.8-2.8
				c2.1-1.9,3.1-4.3,3-7.1c0.1-3-1-5.3-3-7.1c-1.9-2-4.5-2.9-7.8-2.7h-69.1V88.2z"/>
			<linearGradient id="SVGID_3_" gradientUnits="userSpaceOnUse" x1="450.7108" y1="45.9881" x2="450.7108" y2="147.2917">
				<stop  offset="0" style="stop-color:#0BFFB0"/>
				<stop  offset="1" style="stop-color:#009096"/>
			</linearGradient>
			<path class="st3" d="M464.5,46l64.3,101.3H499l-14-22.2h-68.5l-14.1,22.2h-29.7L437,46H464.5z M430.1,103.7h41.3l-20.6-32.5
				L430.1,103.7z"/>
			<linearGradient id="SVGID_4_" gradientUnits="userSpaceOnUse" x1="551.4958" y1="45.9881" x2="551.4958" y2="147.2917">
				<stop  offset="0" style="stop-color:#0BFFB0"/>
				<stop  offset="1" style="stop-color:#009096"/>
			</linearGradient>
			<path class="st4" d="M565.3,46v101.3h-27.7V46H565.3z"/>
			<linearGradient id="SVGID_5_" gradientUnits="userSpaceOnUse" x1="646.6268" y1="45.9881" x2="646.6268" y2="147.2917">
				<stop  offset="0" style="stop-color:#0BFFB0"/>
				<stop  offset="1" style="stop-color:#009096"/>
			</linearGradient>
			<path class="st5" d="M676.9,46c9.3,0,17.2,3,23.7,8.9c6.5,6,9.8,13.2,9.8,21.7V77h-26.9c0.1-0.3,0.2-0.4,0.1-0.4
				c0-2.2-0.8-4.1-2.5-5.5c-1.6-1.6-3.6-2.4-6.1-2.2h-57.6c-2.4-0.1-4.4,0.6-6.1,2.3c-1.6,1.5-2.4,3.3-2.4,5.5c0,2.2,0.9,4,2.5,5.5
				s3.6,2.3,6,2.3c6.8,0,17.3,0,31.5-0.1c14.2-0.1,24.7-0.1,31.4,0c9.6-0.1,17.7,3,24.4,9.2c6.9,6.1,10.2,13.5,10.1,22.3
				c0,8.7-3.3,16.1-10.1,22.3c-6.6,6.1-14.7,9.2-24.3,9.2h-67.1c-9.5,0-17.6-3.1-24.4-9.2c-6.7-6.1-10.1-13.5-10.1-22.3h25.9v0.1
				c0,2.5,1,4.6,2.9,6.4c1.9,1.8,4.2,2.7,6.9,2.7h63.3c2.8-0.1,5.1-1,7-2.6c1.9-1.8,2.8-3.9,2.8-6.3c0-2.5-1-4.6-2.9-6.4
				c-1.9-1.8-4.2-2.7-6.9-2.7h-65.3c-9.3-0.1-17.2-3-23.7-8.9c-6.5-6-9.8-13.2-9.8-21.6c0-8.5,3.3-15.6,9.8-21.4
				c6.5-5.9,14.3-8.9,23.7-9.2H676.9z"/>
			<linearGradient id="SVGID_6_" gradientUnits="userSpaceOnUse" x1="790.7032" y1="45.9881" x2="790.7032" y2="147.2917">
				<stop  offset="0" style="stop-color:#0BFFB0"/>
				<stop  offset="1" style="stop-color:#009096"/>
			</linearGradient>
			<path class="st6" d="M853.3,46v22.6h-97.5v16.6h84.4v22.2h-84.4v17.5h97.5v22.6H728.1V46H853.3z"/>
		</g>
		<rect x="417.8" y="16.8" class="st0" width="26.5" height="16.1"/>
		<rect x="457.2" y="16.8" class="st0" width="26.5" height="16.1"/>
		<g>
			<path class="st0" d="M268.7,6.9v6.7h-29.5c-1.1,0-2,0.3-2.7,1c-0.7,0.6-1.1,1.5-1.1,2.5v9.6c0,1,0.4,1.8,1.1,2.5
				c0.7,0.7,1.6,1,2.7,1h22.4v-4.6h-10.2v-6.3h18.3v17.6h-32.9c-2.7,0-4.9-0.9-6.8-2.6c-1.9-1.7-2.8-3.8-2.8-6.2V15.6
				c0-2.4,0.9-4.5,2.8-6.2c1.9-1.7,4.1-2.6,6.8-2.6H268.7z"/>
			<path class="st0" d="M314,6.9v6.7h-28.7v4.9h24.9V25h-24.9v5.1H314v6.7h-36.9V6.9H314z"/>
			<path class="st0" d="M354.2,6.9c2.7,0,4.9,0.9,6.8,2.6c1.9,1.7,2.8,3.8,2.8,6.2V28c0,2.4-0.9,4.5-2.8,6.2
				c-1.9,1.7-4.1,2.6-6.8,2.6h-23.4c-2.7,0-4.9-0.9-6.8-2.6c-1.9-1.7-2.8-3.8-2.8-6.2V15.6c0-2.4,0.9-4.5,2.8-6.2
				c1.9-1.7,4.1-2.6,6.8-2.6H354.2z M330.5,14.6c-0.7,0.6-1.1,1.5-1.1,2.5v9.6c0,1,0.4,1.8,1.1,2.5c0.7,0.7,1.6,1,2.7,1h18.6
				c1.1,0,2-0.4,2.7-1c0.7-0.7,1.1-1.5,1.1-2.5V17c0-1-0.4-1.8-1.1-2.5c-0.7-0.7-1.6-1-2.7-1h-18.6
				C332.1,13.5,331.2,13.9,330.5,14.6z"/>
		</g>
	</g>
</g>
</svg>
