<svg xmlns="http://www.w3.org/2000/svg" viewBox="0 0 1062.1 192.76"><defs><style>.cls-1{fill:#4dbd94;}.cls-2{fill:#6d6e71;}</style></defs><title>raise-logo</title><g id="Layer_2" data-name="Layer 2"><g id="Layer_1-2" data-name="Layer 1"><path class="cls-1" d="M383,37.59q19,0,32.43,12.2t13.45,29.47q0,15.93-11.64,27.66-11.64,11.44-29,13.45l42.53,47.88H389.24L350,120.85H290.34v47.4H254.68V37.59ZM290.34,92l89.18.1q6.28,0,10-3.62a11.7,11.7,0,0,0,3.91-9.16,11.14,11.14,0,0,0-3.91-9.15q-3.72-3.83-10-3.53H290.34Z"/><path class="cls-1" d="M560.63,37.59l83,130.66H605.17l-18-28.62H498.73l-18.21,28.62H442.18l83-130.66ZM516.28,112H569.5L543,70Z"/><path class="cls-1" d="M690.72,37.59V168.25H655.05V37.59Z"/><path class="cls-1" d="M834.64,37.59q18,0,30.51,11.54t12.59,27.94v.57H843q.29-.57.09-.57a9.15,9.15,0,0,0-3.24-7.15A9.71,9.71,0,0,0,832,67.05H757.67a9.78,9.78,0,0,0-7.82,3,9.16,9.16,0,0,0-3.15,7.06,9.82,9.82,0,0,0,3.24,7.15,10.88,10.88,0,0,0,7.73,3q13.16,0,40.63-.09,27.47-.3,40.53,0Q857.43,87,870.3,99q13.26,11.82,13,28.7.11,16.89-13.06,28.71-12.78,11.84-31.38,11.83h-86.5a45.48,45.48,0,0,1-31.48-11.83q-13-11.82-13-28.71h33.39v.19a10.76,10.76,0,0,0,3.71,8.2,12.59,12.59,0,0,0,8.87,3.44h81.64a14.71,14.71,0,0,0,9-3.34,10.82,10.82,0,0,0,3.62-8.1,10.57,10.57,0,0,0-3.72-8.2,12.58,12.58,0,0,0-8.87-3.44H751.28q-17.94-.1-30.52-11.54-12.59-11.64-12.59-27.85,0-16.39,12.59-27.56,12.5-11.35,30.52-11.92Z"/><path class="cls-1" d="M1062.1,37.59V66.68H936.4V88h108.91v28.61H936.4v22.51h125.7v29.09H900.73V37.59Z"/><rect class="cls-2" x="500.44" width="34.13" height="20.81"/><rect class="cls-2" x="551.21" width="34.13" height="20.81"/><polygon class="cls-2" points="48.87 65.44 0 65.44 128.07 192.76 177.23 192.76 48.87 65.44"/><polygon class="cls-1" points="142.4 93.73 217.28 17.65 168.12 17.65 167.94 17.82 34.55 18.39 0 52.94 133.91 52.54 93.53 93.73 193.31 192.76 242.48 192.76 142.4 93.73"/></g></g></svg>