<svg id="Layer_1" data-name="Layer 1" xmlns="http://www.w3.org/2000/svg" viewBox="0 0 1024 1024"><defs><style>.cls-1{fill:#6d6e71;}.cls-2{fill:#f7cf13;}.cls-3{fill:#f7cf17;}</style></defs><title>supervision2_circle_nobg</title><path class="cls-1" d="M141.07,721.72v55H125.33v-55Zm-.21-15.64a7.67,7.67,0,1,1-15.33,0c0-4.6,3.17-7.87,7.67-7.87S140.86,701.48,140.86,706.08Z"/><path class="cls-1" d="M180.92,740.22v10.42H154.55V740.22Z"/><path class="cls-2" d="M219.55,718.24c-5.42,0-9.1,1.94-9.1,5.83,0,13.18,38.12,5.82,38,31.58,0,14-12.16,21.56-28,21.56a50.19,50.19,0,0,1-31.58-11.34l6.43-13.19c7.36,6.54,17.79,10.73,25.35,10.73,6.64,0,10.63-2.45,10.63-6.84,0-13.49-38.12-5.62-38.12-31,0-13,11.14-21.16,27.7-21.16a51.13,51.13,0,0,1,27.18,7.77l-6.23,13.39C234.26,721.1,225.27,718.24,219.55,718.24Z"/><path class="cls-2" d="M291.08,763.31c9.6,0,15.94-6.23,15.94-16.55v-41.6h16.15v41.6c0,18.9-12.37,30.65-32.09,30.65s-32.5-11.75-32.5-30.65v-41.6h16.14v41.6C274.72,757.08,281.47,763.31,291.08,763.31Z"/><path class="cls-2" d="M396.64,730c0,16.66-10.43,26.27-28.62,26.27h-14.2V776.7H337.67V705.16H368C386.21,705.16,396.64,714.15,396.64,730Zm-15.33.52c0-8-5.11-12-14.1-12H353.82v24.22h13.39C376.2,742.77,381.31,738.68,381.31,730.51Z"/><path class="cls-2" d="M461.52,705.16v13.39H423.2v15.53h34.44v13.39H423.2v15.84h39.45V776.7h-55.6V705.16Z"/><path class="cls-2" d="M519.36,776.7,508,756.26H491.56V776.7H475.42V705.16h31.06c18.71,0,29.33,9,29.33,24.83,0,11-4.7,19-13.38,23.1l15.22,23.61Zm-27.8-33.93h14.92c8.89,0,14-4.09,14-12.26,0-8-5.11-12-14-12H491.56Z"/><path class="cls-2" d="M558.29,705.16l19.52,54,19.62-54h16.66L585.68,776.7H569l-28.11-71.54Z"/><path class="cls-2" d="M638.2,705.16V776.7H622.05V705.16Z"/><path class="cls-2" d="M679,718.24c-5.42,0-9.1,1.94-9.1,5.83,0,13.18,38.13,5.82,38,31.58,0,14-12.16,21.56-28,21.56a50.21,50.21,0,0,1-31.58-11.34l6.44-13.19c7.36,6.54,17.78,10.73,25.35,10.73,6.64,0,10.62-2.45,10.62-6.84,0-13.49-38.12-5.62-38.12-31,0-13,11.14-21.16,27.7-21.16a51.13,51.13,0,0,1,27.18,7.77l-6.23,13.39C693.69,721.1,684.69,718.24,679,718.24Z"/><path class="cls-2" d="M735.48,705.16V776.7H719.33V705.16Z"/><path class="cls-2" d="M823.16,740.93c0,20.65-16.56,36.48-38.43,36.48s-38.43-15.73-38.43-36.48,16.56-36.28,38.43-36.28S823.16,720.18,823.16,740.93Zm-60.3,0a22.25,22.25,0,0,0,22.07,22.38c12,0,21.67-9.81,21.67-22.38s-9.71-22.18-21.67-22.18A22,22,0,0,0,762.86,740.93Z"/><path class="cls-2" d="M848.59,705.16l34.75,46v-46h15.33V776.7H884l-34.64-45.89V776.7H833.88V705.16Z"/><path class="cls-1" d="M512,644.08c-2.19,0-4.41,0-6.79-.08l-.89,0-.64,0c-1.77-.06-3.53-.12-5.29-.22l-1.45-.09q-2.69-.15-5.37-.36l-1.2-.11c-1.87-.15-3.75-.33-5.62-.53l-.91-.1c-2-.22-4-.46-5.89-.72l-.63-.08c-2.08-.29-4.15-.59-6.15-.92l-.4-.06c-2.1-.35-4.25-.72-6.37-1.12l-.15,0A255.26,255.26,0,0,1,382.7,609l-.33-.19c-1.79-1.06-3.57-2.13-5.27-3.18l-.74-.47q-2.43-1.51-4.81-3.07l-.92-.61q-2.31-1.53-4.59-3.1l-.94-.66c-1.53-1.07-3.06-2.16-4.57-3.27l-.8-.58c-1.58-1.17-3.19-2.39-4.79-3.62l-.44-.34a262.84,262.84,0,0,1-30.08-27.41l-.11-.12c-1.13-1.21-2.26-2.43-3.37-3.66a5,5,0,0,1-1.31-1.45c-.16-.17-.32-.36-.46-.54-1-1.1-2-2.28-3-3.46l-.78-.92c-1-1.2-2-2.4-3-3.62l-.83-1q-1.47-1.83-2.91-3.67l-.7-.91c-1-1.31-2-2.61-3-3.94l-.35-.48a256.4,256.4,0,0,1-49-128.47l-.06-.67c-.15-1.67-.29-3.3-.4-4.93,0-.4-.06-.8-.08-1.2l0-.64c-.08-1.34-.17-2.67-.23-4,0-.82-.07-1.63-.1-2.45l-.06-1.62c0-.66,0-1.31-.06-2-.05-2.2-.08-4.23-.08-6.2,0-1.81,0-3.79.08-6.06,0-.35,0-1.61,0-1.61,0-1.56.1-3.12.17-4.67,0,0,.06-1.08.08-1.5.1-1.87.22-3.75.36-5.61l0-.35c.16-2.09.35-4.22.57-6.34l0-.43q.28-2.7.63-5.4c.07-.56.14-1.13.22-1.7.17-1.31.36-2.61.55-3.92.12-.81.24-1.61.37-2.41.09-.61.19-1.22.3-1.82l.09-.56a258.11,258.11,0,0,1,208.7-211.1,10.8,10.8,0,0,1,1.27-.53l.11,0,.11,0A251.07,251.07,0,0,1,512,129.08c71.21,0,137.36,28.35,186.26,79.83a10.08,10.08,0,0,1,1.48,1.91A256.31,256.31,0,0,1,769.5,386.58v.86a254.23,254.23,0,0,1-15.45,88.4L754,476l-.1.15a12.84,12.84,0,0,1-1.11,1.43,257.9,257.9,0,0,1-32.16,59.47,253.93,253.93,0,0,1-176.5,105.05,9.87,9.87,0,0,1-2.19.27l-1.73.14c-8,.88-16.11,1.39-24.2,1.51C514.66,644.07,513.32,644.08,512,644.08Zm-172.69-95c43.93,46.65,103,73.22,166.57,74.85,2,0,4.1.08,6.12.08,2.92,0,6.06-.07,9.6-.21,1.22-.08,2.38-.19,3.49-.33L461.4,496.09a126,126,0,0,1-60.09-59.29ZM547,621.31A238.2,238.2,0,0,0,729.31,482H586.74c-22.2,16.75-48,25.6-74.74,25.6a130.31,130.31,0,0,1-22.88-2ZM289.05,468.05a237.36,237.36,0,0,0,36.15,64.64l68.31-122.45A115.06,115.06,0,0,1,391,386.59a122.24,122.24,0,0,1,20-66.77H284.42a230.36,230.36,0,0,0-9.61,56.43c-.05,1-.09,2.05-.12,3.08l-.06,2c0,1.76-.06,3.52-.06,5.3s0,3.74.07,5.61c0,.46,0,.93,0,1.4l0,.64c0,1.17.08,2.33.14,3.48,0,.86.08,1.72.13,2.58s.12,1.88.19,2.82.14,2,.22,3c.05.64.11,1.27.17,1.91l.06.62q.13,1.56.3,3.12l.06.57c.71,6.48,1.7,13,2.92,19.29,1.53,7.85,3.48,15.7,5.8,23.4l.3,1c.24.77.49,1.55.74,2.33l.3.91q.38,1.22.78,2.4l.55,1.62,0,.11q.78,2.28,1.6,4.53l0,0Zm184.31,11.88a101.39,101.39,0,0,0,103.4-16,99.55,99.55,0,0,0,36.14-77.35,81.07,81.07,0,0,0-3.32-24.2,4.67,4.67,0,0,1-.38-1.44A99.79,99.79,0,0,0,544,291.58l-.1,0-.1-.05a17,17,0,0,1-2.88-1.72,101.85,101.85,0,0,0-28.87-4.1c-28.23,0-53.9,11-72.28,31.09a9.7,9.7,0,0,1-2.55,1.82,102.29,102.29,0,0,0-26.07,68,105,105,0,0,0,2.49,22.56,5.54,5.54,0,0,1,.41,2.47c8,30.93,29.67,56.25,58,67.76A10.23,10.23,0,0,1,473.36,479.93Zm263.7-18.05a233,233,0,0,0,6.39-22.41q.57-2.5,1.1-5l.14-.67q.51-2.53,1-5.09l.08-.46c.33-1.86.64-3.7.92-5.54.91-5.91,1.6-11.86,2.06-17.77l0-.39c.13-1.71.24-3.42.33-5.14l.07-1.26c.07-1.47.12-2.95.17-4.44l0-1.43c0-2,.07-3.88.07-5.66s0-3.68-.07-5.72c0-.44,0-.87,0-1.31l0-.71c0-1.23-.08-2.45-.14-3.67,0-.75-.08-1.5-.12-2.25v-.18c-.07-1.08-.13-2.16-.21-3.23-.06-.86-.13-1.72-.2-2.57-.09-1-.18-2.08-.28-3.11-.08-.85-.17-1.71-.26-2.56-.11-1.07-.24-2.13-.37-3.2l-.07-.64c-.07-.57-.14-1.15-.22-1.72-.16-1.26-.34-2.5-.53-3.75l-.25-1.75a234.7,234.7,0,0,0-37-94.74A230.8,230.8,0,0,0,693.25,234L629.66,361.12A90.38,90.38,0,0,1,633,386.58a121.11,121.11,0,0,1-26.5,75.3ZM554.85,273.58A117.78,117.78,0,0,1,621.08,334L679,218.21a236.84,236.84,0,0,0-154.08-68.7c-4-.2-8.12-.3-12.18-.3a256.74,256.74,0,0,0-26.48,1.39Zm-127.1,26.17c22.25-22,52.15-34.13,84.25-34.13a110.42,110.42,0,0,1,15.12,1.29L463.45,154.46a235.34,235.34,0,0,0-70.81,27.11l-.42.25c-1,.59-2,1.17-3,1.78l-.89-1.22.78,1.29a240.46,240.46,0,0,0-98,116.08Z"/><path class="cls-1" d="M512,130.58c70.83,0,136.53,28.16,185.17,79.36a9,9,0,0,1,1.36,1.78A255,255,0,0,1,768,386.58v.86a254,254,0,0,1-15.36,87.89,11.77,11.77,0,0,1-1.16,1.46,256.47,256.47,0,0,1-32.08,59.39A252.41,252.41,0,0,1,543.85,640.63a8,8,0,0,1-2,.25l-1.8.15q-11.9,1.31-24.09,1.5c-1.34,0-2.67.05-4,.05q-3.39,0-6.75-.08l-1.52-.06c-1.76-.06-3.51-.12-5.26-.21l-1.44-.1c-1.78-.1-3.57-.21-5.34-.36l-1.19-.1c-1.86-.16-3.73-.33-5.59-.53l-.9-.1c-2-.22-3.92-.45-5.86-.71l-.63-.09q-3.07-.42-6.12-.91l-.39-.06c-2.12-.35-4.22-.72-6.33-1.12l-.16,0a254,254,0,0,1-81.07-30.4l-.33-.19c-1.75-1-3.5-2.09-5.23-3.16l-.74-.46c-1.6-1-3.2-2-4.78-3.06l-.91-.6q-2.29-1.51-4.56-3.09c-.32-.21-.63-.43-.94-.65-1.53-1.06-3-2.15-4.54-3.25l-.8-.58q-2.4-1.77-4.76-3.6l-.44-.34a259.17,259.17,0,0,1-29.91-27.25l-.1-.11q-1.76-1.86-3.46-3.75a3.56,3.56,0,0,1-1.1-1.23c-.18-.19-.35-.38-.51-.58-1-1.16-2-2.33-3-3.51l-.78-.91q-1.5-1.78-3-3.6c-.28-.34-.55-.68-.82-1-1-1.2-1.94-2.42-2.9-3.64l-.69-.91q-1.5-1.94-3-3.91l-.35-.48A254.52,254.52,0,0,1,257.1,410.11l-.06-.71c-.15-1.62-.28-3.23-.4-4.86,0-.61-.07-1.21-.11-1.82-.09-1.33-.17-2.65-.23-4-.05-1-.08-2.07-.12-3.1s-.08-1.93-.1-2.89c-.05-2.06-.08-4.11-.08-6.17s0-4,.08-6c0-.54,0-1.07,0-1.61.05-1.55.11-3.09.18-4.64,0-.5.05-1,.08-1.49.1-1.86.21-3.72.35-5.58l0-.35q.24-3.15.56-6.29c0-.15,0-.29.05-.43.18-1.79.39-3.58.61-5.37.08-.57.15-1.13.23-1.69q.26-2,.54-3.9c.12-.8.24-1.6.37-2.4s.26-1.57.39-2.36a256.67,256.67,0,0,1,207.7-209.91,9.69,9.69,0,0,1,1.27-.54A249.38,249.38,0,0,1,512,130.58M621,337.5l59.8-119.59A238.41,238.41,0,0,0,525,148q-6.09-.3-12.26-.3a254.55,254.55,0,0,0-28.89,1.65l70,125.44A117,117,0,0,1,621,337.5m-332.1-36.25H428.37c22.19-22.19,52.06-34.13,83.63-34.13a127.23,127.23,0,0,1,17.88,1.7l-1.44-2.61L464.21,152.77a237.35,237.35,0,0,0-72.32,27.5c-1.16.68-2.31,1.35-3.45,2l-.12.06a241.25,241.25,0,0,0-99.4,118.87M603.31,463.38H738.13a234.87,234.87,0,0,0,6.78-23.57q.58-2.52,1.11-5.07c.05-.23.09-.45.14-.67q.51-2.56,1-5.14l.09-.49q.49-2.76.93-5.54v-.1q1.35-8.79,2.05-17.79l0-.39c.13-1.71.24-3.44.33-5.17l.06-1.27c.08-1.48.13-3,.18-4.46,0-.48,0-1,0-1.44,0-1.89.07-3.79.07-5.7s0-3.84-.07-5.76c0-.68-.05-1.36-.07-2,0-1.23-.08-2.46-.14-3.69,0-.82-.09-1.63-.14-2.45-.06-1.08-.13-2.17-.2-3.25l-.21-2.58c-.08-1.05-.18-2.09-.28-3.13-.08-.86-.16-1.72-.26-2.58-.11-1.07-.24-2.15-.37-3.22-.09-.79-.19-1.59-.29-2.38-.17-1.26-.35-2.51-.53-3.77-.09-.59-.17-1.17-.26-1.76a237.6,237.6,0,0,0-37.19-95.34,229.61,229.61,0,0,0-18-23.37L628.05,361a88.1,88.1,0,0,1,3.42,25.6,119.91,119.91,0,0,1-28.16,76.8M512,489a103.73,103.73,0,0,0,65.71-23.89,101.23,101.23,0,0,0,36.69-78.51A82.44,82.44,0,0,0,611,361.84a3.56,3.56,0,0,1-.32-1.18,100.63,100.63,0,0,0-66.24-70.5,14.8,14.8,0,0,1-2.86-1.74A104.09,104.09,0,0,0,512,284.18c-28.16,0-54.61,11.1-73.39,31.58a8.18,8.18,0,0,1-2.35,1.61,103.08,103.08,0,0,0-26.66,69.21,105.71,105.71,0,0,0,2.56,23,4.11,4.11,0,0,1,.33,2.14c7.85,30.59,29.34,57,59,69a10.42,10.42,0,0,1,1.28.52A103.75,103.75,0,0,0,512,489m-186.58,46.4,69.67-124.9a114.15,114.15,0,0,1-2.56-23.89,119.81,119.81,0,0,1,21.34-68.27H283.31a231.84,231.84,0,0,0-10,57.86c-.05,1-.09,2.07-.12,3.11l-.06,2c0,1.78-.06,3.55-.06,5.34s0,3.77.07,5.64c0,.69,0,1.38.06,2.06,0,1.17.08,2.34.14,3.5,0,.87.09,1.73.14,2.6s.11,1.89.18,2.84.14,2,.22,3c.06.74.13,1.47.2,2.2.11,1.17.21,2.33.34,3.49l.06.57q1.08,9.8,2.94,19.42a.43.43,0,0,1,0,.05,240.44,240.44,0,0,0,5.82,23.49c.11.34.2.68.31,1,.29,1,.61,1.93.92,2.9s.6,1.86.91,2.79c.19.58.39,1.16.59,1.74.54,1.55,1.08,3.1,1.64,4.64h0a239.18,239.18,0,0,0,37.79,66.86M512,625.52c3.24,0,6.46-.09,9.67-.22a55.33,55.33,0,0,0,5.69-.64L462.51,495c-27-12.67-49.05-34.55-61.08-61.48l-64,115.84c42.38,45.41,102.13,74.42,168.38,76.12q3.06.07,6.15.08m0-119.47a123.82,123.82,0,0,1-25.6-2.56L546.13,623A239.74,239.74,0,0,0,731.6,480.45H586.24c-21.33,16.21-46.93,25.6-74.24,25.6m0-378.47A253.09,253.09,0,0,0,468,131l-.22,0-.21.07a11.88,11.88,0,0,0-1.26.51A259.78,259.78,0,0,0,256.55,344l-.08.49c-.11.63-.21,1.27-.32,1.9l-.36,2.4c-.2,1.34-.38,2.65-.56,4-.07.57-.15,1.14-.22,1.72-.23,1.84-.44,3.66-.63,5.43V360l0,.3c-.21,2.11-.4,4.25-.56,6.36l0,.2V367c-.14,1.83-.25,3.67-.36,5.66,0,.5,0,1-.07,1.51-.08,1.53-.14,3.11-.18,4.69l0,.45,0,1.18c-.05,2.27-.08,4.26-.08,6.09,0,2,0,4,.08,6.24,0,.69,0,1.37.07,2.06l0,.87,0,.6c0,.85.06,1.69.1,2.53.06,1.35.15,2.68.23,4l0,.6c0,.42.05.84.08,1.26.11,1.48.23,3,.4,4.91v.18c0,.18,0,.37.05.55a257.87,257.87,0,0,0,49.28,129.2l.16.22.2.27c.88,1.2,1.86,2.5,3,4l.27.35.44.57c.87,1.12,1.8,2.29,2.92,3.69l.28.34.56.7c.91,1.12,1.9,2.31,3,3.64l.26.3.53.62c1,1.14,2,2.31,3,3.48l.38.46a6.74,6.74,0,0,0,1.49,1.64c1,1.09,2,2.23,3.31,3.59l.07.08a262.57,262.57,0,0,0,30.28,27.6l.25.18.2.16c1.63,1.26,3.25,2.48,4.82,3.64l.5.37.3.22c1.54,1.13,3.09,2.23,4.6,3.29l.87.6.08.06c1.5,1,3.05,2.09,4.61,3.12l.16.1.77.51c1.57,1,3.19,2.07,4.83,3.09l.32.2.43.27c1.72,1.07,3.5,2.14,5.29,3.2l.13.07.21.13a256.9,256.9,0,0,0,82,30.75H464l.11,0c2.1.4,4.26.78,6.39,1.13l.17,0,.22,0c2,.33,4.12.64,6.19.92l.24,0,.4,0c1.88.25,3.87.49,5.93.72l.4.05.52.06c1.69.18,3.54.35,5.65.53l.47,0,.74.07c1.57.12,3.24.23,5.4.36l.63,0,.82.05c1.83.1,3.64.16,5.32.22l.66,0c.29,0,.58,0,.88,0,2.35.06,4.65.09,6.83.09,1.22,0,2.54,0,4-.05,8.11-.12,16.3-.63,24.32-1.52l.89-.07.75-.06a11.16,11.16,0,0,0,2.39-.29A255.46,255.46,0,0,0,721.84,537.92a258.84,258.84,0,0,0,32.24-59.54,15,15,0,0,0,1.06-1.39l.2-.3.12-.33A255.81,255.81,0,0,0,771,387.44v-.86A257.8,257.8,0,0,0,700.94,209.9a11.8,11.8,0,0,0-1.62-2.05C650.14,156.09,583.61,127.58,512,127.58Zm-23.32,24.29c8-.77,16.1-1.16,24.05-1.16,4,0,8.11.1,12.11.3a235.32,235.32,0,0,1,152.32,67.5L621.09,330.66a120.4,120.4,0,0,0-25-33.36,119.08,119.08,0,0,0-40.23-24.94L488.68,151.87ZM293.34,298.25A239,239,0,0,1,389.88,185l.06,0,0,0,0,0c1-.64,2.1-1.26,3.16-1.88l.25-.14a233.87,233.87,0,0,1,69.27-26.71L524.32,265a97.23,97.23,0,0,0-12.32-.91c-32.29,0-62.37,12.11-84.86,34.13Zm337.92,63,62.32-124.63a229.27,229.27,0,0,1,14.85,19.68,233.16,233.16,0,0,1,36.72,94.12l.15,1,.1.7c.18,1.24.36,2.48.52,3.72.09.63.16,1.27.24,1.9l.05.45c.13,1.06.26,2.12.37,3.18.09.85.18,1.7.26,2.54q.15,1.54.27,3.09c.07.85.14,1.7.2,2.55.08,1.07.15,2.14.21,3.22l0,.38c0,.68.08,1.36.11,2,.06,1.21.1,2.43.14,3.65l0,.74c0,.42,0,.84,0,1.26,0,2.06.07,3.92.07,5.69s0,3.58-.07,5.63l0,.87v.55c-.05,1.58-.1,3-.17,4.41,0,.42,0,.84-.07,1.25-.09,1.83-.2,3.5-.32,5.11l0,.21v.17c-.45,5.88-1.13,11.79-2,17.57l0,.08c-.27,1.77-.58,3.61-.91,5.48l0,.26,0,.24c-.28,1.56-.6,3.22-1,5.06l-.07.34-.07.31c-.31,1.54-.67,3.18-1.09,5-1.65,7.12-3.67,14.26-6,21.24H609.54a122.6,122.6,0,0,0,24.93-73.8,92,92,0,0,0-3.21-25.31ZM438.1,319.8a10.67,10.67,0,0,0,2.63-1.92l0-.05.05-.05c18.08-19.73,43.36-30.6,71.17-30.6a100.25,100.25,0,0,1,28.18,4,19.29,19.29,0,0,0,2.9,1.7l.2.1.2.06a98.27,98.27,0,0,1,64.24,68.23,6.92,6.92,0,0,0,.45,1.67,78.86,78.86,0,0,1,3.23,23.68,98,98,0,0,1-35.6,76.19A99.95,99.95,0,0,1,474,478.56a14.17,14.17,0,0,0-1.47-.6c-27.79-11.32-49.06-36.15-57-66.52a6.85,6.85,0,0,0-.49-2.76,103.88,103.88,0,0,1-2.42-22.1,100.79,100.79,0,0,1,25.5-66.78Zm-152.57,1.52H408.29a123.85,123.85,0,0,0-18.76,65.27A117.53,117.53,0,0,0,391.92,410L325,530a236,236,0,0,1-34.53-62.45l0-.15,0-.06c-.59-1.6-1.15-3.21-1.57-4.44l-.06-.17c-.18-.52-.35-1-.53-1.54-.3-.91-.59-1.82-.89-2.73l-.17-.52c-.25-.79-.5-1.58-.74-2.37-.06-.18-.11-.36-.16-.54l-.15-.47c-2.3-7.63-4.23-15.42-5.74-23.15v-.1c-1.22-6.28-2.2-12.73-2.91-19.16l0-.29,0-.27c-.12-1.09-.22-2.18-.32-3.26v-.19l-.05-.51-.15-1.66c-.08-1-.15-2-.22-2.94l-.18-2.81c-.05-.85-.1-1.7-.14-2.56-.05-1.15-.09-2.3-.13-3.45l0-.7c0-.45,0-.89,0-1.33-.05-2.06-.07-3.88-.07-5.58,0-1.94,0-3.83.06-5.27l.06-1.94c0-1,.07-2.05.12-3.07a228.91,228.91,0,0,1,9.22-55Zm55.62,227.54L401.24,440a127.62,127.62,0,0,0,59.05,57.19l62.49,125-1.27.1c-3.51.14-6.62.21-9.51.21-2,0-4,0-6.08-.08-62.77-1.61-121.19-27.72-164.77-73.58Zm246.09-65.41H727A236.74,236.74,0,0,1,547.84,619.67L491.78,507.54A135.86,135.86,0,0,0,512,509.05c26.87,0,52.86-8.85,75.24-25.6Z"/><path class="cls-3" d="M452.27,422.22a10,10,0,1,1,10-10A9.61,9.61,0,0,1,452.27,422.22Z"/><path class="cls-3" d="M452.27,403.65c5.12,0,8.53,3.41,8.53,8.53s-3.41,8.54-8.53,8.54-8.54-3.42-8.54-8.54,3.42-8.53,8.54-8.53m0-3c-6.79,0-11.54,4.74-11.54,11.53s4.75,11.54,11.54,11.54S463.8,419,463.8,412.18s-4.74-11.53-11.53-11.53Z"/><path class="cls-3" d="M443.73,396.62a9.6,9.6,0,0,1-10-10,78,78,0,0,1,78.3-78.3,10,10,0,0,1,0,20.07c-32.66,0-58.23,25.58-58.23,58.23A9.61,9.61,0,0,1,443.73,396.62Z"/><path class="cls-3" d="M512,309.78c5.12,0,8.53,3.42,8.53,8.54s-3.41,8.53-8.53,8.53a59.36,59.36,0,0,0-59.73,59.73c0,5.12-3.42,8.54-8.54,8.54s-8.53-3.42-8.53-8.54a76.48,76.48,0,0,1,76.8-76.8m0-3a79.49,79.49,0,0,0-79.8,79.8c0,6.8,4.74,11.54,11.53,11.54s11.54-4.74,11.54-11.54c0-31.81,24.92-56.73,56.73-56.73,6.79,0,11.53-4.74,11.53-11.53s-4.74-11.54-11.53-11.54Z"/><path class="cls-2" d="M512,359.32a27.27,27.27,0,1,0,27.26,27.28A27.32,27.32,0,0,0,512,359.32Zm0,37.13a9.87,9.87,0,1,1,9.86-9.85A9.88,9.88,0,0,1,512,396.45Z"/><path class="cls-1" d="M457.91,828.88c0-5.67-4.42-9-12.1-9s-16.64,4.28-24.58,11.09l-7.82-14.87C424.25,808,436.22,803,448.71,803c17.64,0,30.12,9,30.12,22.81,0,9.46-7.19,19.29-16.89,29.37l-20.55,20.3H482v16.76h-66.3V878.54l32.65-33.65C454,839.22,457.91,833.17,457.91,828.88Z"/><path class="cls-1" d="M512,883.33c0,5.8-4,10.09-9.71,10.09s-9.7-4.29-9.7-10.09,4.16-10,9.7-10S512,877.41,512,883.33Z"/><path class="cls-1" d="M590.23,848c0,28.86-12.1,44.74-34,44.74S522.05,876.9,522.05,848s12.1-44.75,34.15-44.75S590.23,819.3,590.23,848Zm-48.9,0c0,20.92,4.66,30.12,14.87,30.12S571,869,571,848s-4.66-30.13-14.75-30.13S541.33,827,541.33,848Z"/></svg>