<svg width="924" height="378" viewBox="0 0 924 378" fill="none" xmlns="http://www.w3.org/2000/svg">
<g clip-path="url(#clip0_2_57)">
<path d="M609.545 131.379C610.968 130.765 612.505 130.459 614.055 130.48C615.605 130.501 617.133 130.85 618.538 131.502C619.944 132.155 621.196 133.098 622.213 134.268C623.229 135.439 623.986 136.811 624.435 138.294C624.575 138.764 624.682 139.244 624.756 139.729L668.694 161.517L678.862 154.779L691.514 169.344L675.988 181.954C674.121 183.458 671.818 184.321 669.422 184.413C667.026 184.506 664.664 183.823 662.687 182.467L618.107 151.639C617.776 151.779 617.437 151.903 617.092 152.009C615.609 152.458 614.047 152.588 612.509 152.391C610.972 152.194 609.493 151.674 608.17 150.866C606.847 150.058 605.71 148.979 604.833 147.701C603.957 146.422 603.36 144.973 603.082 143.448C603 143.005 602.945 142.558 602.919 142.108C602.796 139.857 603.364 137.623 604.549 135.705C605.733 133.786 607.477 132.277 609.545 131.379Z" fill="#FFB8B8"/>
<path d="M64.7957 199.032C64.7957 200.756 65.4805 202.409 66.6995 203.628C67.9184 204.847 69.5717 205.532 71.2957 205.532H81.9045L83.7957 208.96V361.032C83.7957 362.756 84.4805 364.409 85.6995 365.628C86.9184 366.847 88.5717 367.532 90.2957 367.532C92.0196 367.532 93.6729 366.847 94.8918 365.628C96.1108 364.409 96.7957 362.756 96.7957 361.032V205.532H452.697L452.796 361.032C452.796 362.756 453.48 364.409 454.699 365.628C455.918 366.847 457.572 367.532 459.296 367.532C461.02 367.532 462.673 366.847 463.892 365.628C465.111 364.409 465.796 362.756 465.796 361.032V205.532H477.296C479.02 205.532 480.673 204.847 481.892 203.628C483.111 202.409 483.796 200.756 483.796 199.032C483.796 197.308 483.111 195.655 481.892 194.436C480.673 193.217 479.02 192.532 477.296 192.532H71.2957C70.4421 192.532 69.5968 192.7 68.8082 193.027C68.0196 193.354 67.303 193.832 66.6995 194.436C66.0959 195.04 65.6171 195.756 65.2904 196.545C64.9638 197.333 64.7957 198.179 64.7957 199.032Z" fill="#E5E5E5"/>
<path d="M213.697 290.934V266.934C213.697 265.873 213.275 264.856 212.525 264.106C211.775 263.356 210.758 262.934 209.697 262.934H118.697C117.636 262.934 116.619 263.356 115.868 264.106C115.118 264.856 114.697 265.873 114.697 266.934V290.934H213.697Z" fill="#E5E5E5"/>
<path d="M213.697 299.934H114.697V330.934H213.697V299.934Z" fill="#E5E5E5"/>
<path d="M114.697 339.934V363.934C114.697 364.995 115.118 366.012 115.868 366.762C116.619 367.513 117.636 367.934 118.697 367.934H209.697C210.758 367.934 211.775 367.513 212.525 366.762C213.275 366.012 213.697 364.995 213.697 363.934V339.934H114.697Z" fill="#E5E5E5"/>
<path d="M164.697 280.934C166.354 280.934 167.697 279.591 167.697 277.934C167.697 276.277 166.354 274.934 164.697 274.934C163.04 274.934 161.697 276.277 161.697 277.934C161.697 279.591 163.04 280.934 164.697 280.934Z" fill="white"/>
<path d="M164.697 320.934C166.354 320.934 167.697 319.591 167.697 317.934C167.697 316.277 166.354 314.934 164.697 314.934C163.04 314.934 161.697 316.277 161.697 317.934C161.697 319.591 163.04 320.934 164.697 320.934Z" fill="white"/>
<path d="M164.536 360.087C166.193 360.087 167.536 358.744 167.536 357.087C167.536 355.43 166.193 354.087 164.536 354.087C162.879 354.087 161.536 355.43 161.536 357.087C161.536 358.744 162.879 360.087 164.536 360.087Z" fill="white"/>
<path d="M96 184.066V192.006C96.0306 192.439 96.2304 192.842 96.5561 193.128C96.8818 193.415 97.3073 193.561 97.7402 193.536H129.16C129.458 193.537 129.753 193.468 130.02 193.336L137.95 189.366C138.211 189.255 138.434 189.07 138.59 188.834C138.747 188.597 138.83 188.32 138.83 188.036C138.83 187.753 138.747 187.475 138.59 187.239C138.434 187.003 138.211 186.817 137.95 186.706L130.02 182.736C129.753 182.604 129.458 182.536 129.16 182.536H97.7402C97.3073 182.511 96.8818 182.658 96.5561 182.944C96.2304 183.231 96.0306 183.634 96 184.066Z" fill="#3F3D56"/>
<path d="M97.7402 182.536H104V193.536H97.7402C97.3073 193.561 96.8818 193.415 96.5561 193.128C96.2304 192.842 96.0306 192.439 96 192.006V184.066C96.0306 183.634 96.2304 183.231 96.5561 182.944C96.8818 182.658 97.3072 182.511 97.7402 182.536Z" fill="#43DAA8"/>
<path d="M851.444 280.755C847.435 282.164 843.131 282.517 838.945 281.78C834.76 281.043 830.836 279.24 827.549 276.546C819.18 269.521 816.556 257.948 814.421 247.232C812.316 236.667 810.211 226.102 808.106 215.536L821.327 224.64C830.835 231.187 840.558 237.944 847.141 247.427C853.724 256.909 856.598 269.854 851.308 280.115" fill="#E6E6E6"/>
<path d="M850.314 319.129C851.652 309.382 853.028 299.509 852.09 289.657C851.256 280.908 848.587 272.362 843.152 265.355C840.268 261.643 836.758 258.462 832.78 255.956C831.743 255.301 830.788 256.945 831.821 257.597C838.703 261.947 844.027 268.369 847.023 275.94C850.333 284.358 850.864 293.535 850.294 302.478C849.949 307.886 849.218 313.258 848.482 318.624C848.424 318.867 848.46 319.122 848.583 319.339C848.706 319.556 848.907 319.718 849.145 319.793C849.388 319.858 849.647 319.825 849.866 319.701C850.085 319.577 850.246 319.371 850.314 319.129Z" fill="#F2F2F2"/>
<path d="M837.425 301.881C835.705 304.494 833.342 306.62 830.562 308.055C827.782 309.49 824.68 310.185 821.554 310.072C813.519 309.691 806.821 304.083 800.792 298.76L782.958 283.014L794.761 282.449C803.249 282.043 811.956 281.664 820.041 284.281C828.126 286.899 835.582 293.198 837.06 301.567" fill="#E6E6E6"/>
<path d="M854.096 324.732C847.655 313.336 840.184 300.669 826.835 296.621C823.123 295.499 819.231 295.097 815.369 295.437C814.151 295.542 814.455 297.419 815.67 297.314C822.145 296.776 828.607 298.486 833.969 302.155C839.128 305.667 843.146 310.549 846.546 315.727C848.628 318.899 850.494 322.205 852.36 325.506C852.956 326.561 854.699 325.8 854.096 324.732L854.096 324.732Z" fill="#F2F2F2"/>
<path d="M864.416 336.728C864.199 334.214 863.296 331.807 861.806 329.77C860.315 327.733 858.295 326.144 855.964 325.176V318.587H844.913V325.383C842.697 326.399 840.79 327.984 839.386 329.977C837.982 331.97 837.131 334.299 836.921 336.728L834.323 366.934H867.014L864.416 336.728Z" fill="#F2F2F2"/>
<path d="M0 368C0 367.735 0.105356 367.48 0.292892 367.293C0.480429 367.105 0.734784 367 1 367L923.364 367.364C923.916 367.364 924 367.448 924 368C924 368.265 923.895 368.52 923.707 368.707C923.52 368.895 923.265 369 923 369H1C0.734784 369 0.480429 368.895 0.292892 368.707C0.105356 368.52 0 368.265 0 368Z" fill="#CCCCCC"/>
<path d="M239.282 191.458L242.564 190.076L244.816 173.62H274.804L277.245 190.008L280.182 191.477C280.322 191.547 280.435 191.663 280.502 191.805C280.568 191.947 280.585 192.108 280.549 192.261C280.513 192.414 280.426 192.55 280.303 192.647C280.18 192.745 280.027 192.798 279.87 192.798H239.552C239.391 192.798 239.235 192.742 239.111 192.64C238.986 192.538 238.901 192.396 238.869 192.238C238.837 192.081 238.861 191.917 238.936 191.774C239.011 191.632 239.133 191.52 239.282 191.458Z" fill="#E6E6E6"/>
<path d="M183.079 172.891V152.118H336.212V172.891C336.212 173.663 335.905 174.405 335.36 174.952C334.814 175.499 334.073 175.807 333.3 175.809H185.991C185.218 175.807 184.478 175.499 183.932 174.952C183.386 174.405 183.079 173.663 183.079 172.891Z" fill="#CCCCCC"/>
<path d="M182.925 73.0545C182.926 72.1217 183.297 71.2275 183.957 70.568C184.617 69.9084 185.511 69.5374 186.444 69.5364H332.828C333.761 69.5374 334.655 69.9084 335.315 70.568C335.974 71.2275 336.345 72.1217 336.346 73.0545V161.936H182.925V73.0545Z" fill="#3F3D56"/>
<path d="M189.376 152.772V78.6996C189.377 77.9805 189.663 77.291 190.172 76.7825C190.68 76.274 191.369 75.988 192.089 75.9872H327.183C327.902 75.988 328.592 76.274 329.1 76.7825C329.609 77.291 329.895 77.9805 329.896 78.6996V152.772C329.895 153.491 329.609 154.181 329.1 154.689C328.592 155.198 327.902 155.484 327.183 155.485H192.089C191.369 155.484 190.68 155.198 190.172 154.689C189.663 154.181 189.377 153.491 189.376 152.772Z" fill="white"/>
<path d="M474.1 0H609.49V161.66H474.1V0Z" fill="white"/>
<path d="M474.1 0H609.49V161.66H474.1V0ZM607.102 2.38849H476.488V159.271H607.102V2.38849Z" fill="#E5E5E5"/>
<path d="M589.149 78.2847H494.441V81.9445H589.149V78.2847Z" fill="#F1F1F1"/>
<path d="M578.965 56.406H579.997V19.379H543.614V20.412H578.965V56.406Z" fill="#CBCBCB"/>
<path d="M506.199 59.803H542.582V58.771H507.231V22.777H506.199V59.803Z" fill="#CBCBCB"/>
<path d="M589.149 87.8271H494.441V91.487H589.149V87.8271Z" fill="#F1F1F1"/>
<path d="M589.149 97.3695H494.441V101.029H589.149V97.3695Z" fill="#F1F1F1"/>
<path d="M589.149 114.164H494.441V117.824H589.149V114.164Z" fill="#F1F1F1"/>
<path d="M589.149 123.707H494.441V127.366H589.149V123.707Z" fill="#F1F1F1"/>
<path d="M589.149 133.249H494.441V136.909H589.149V133.249Z" fill="#F1F1F1"/>
<path d="M534.606 29.4361L535.561 28.2673L534.122 26.6297L532.84 27.4257C532.099 26.8453 531.25 26.4172 530.342 26.1659L530.177 24.5231L528.001 24.3823L527.636 25.9452C526.612 26.0551 525.623 26.385 524.739 26.9121L523.658 26.0295L522.021 27.468L522.756 28.6533C522.12 29.4627 521.665 30.4001 521.424 31.4014L519.827 31.5624L519.686 33.7375L521.294 34.1136C521.427 35.0523 521.746 35.955 522.231 36.7694L521.348 37.8499L522.787 39.4875L523.972 38.7516C524.735 39.3524 525.612 39.7915 526.551 40.0421L526.723 41.7479L528.898 41.8887L529.285 40.2344C530.269 40.1153 531.219 39.7926 532.072 39.2869L533.241 40.2415L534.878 38.803L534.082 37.521C534.694 36.74 535.136 35.8403 535.381 34.8791L537.072 34.7086L537.213 32.5334L535.543 32.1429C535.417 31.1866 535.098 30.2659 534.606 29.4361ZM532.327 37.4672C531.463 38.226 530.394 38.7116 529.254 38.8626C528.114 39.0136 526.955 38.8232 525.923 38.3155C524.892 37.8078 524.034 37.0056 523.458 36.0103C522.883 35.015 522.615 33.8714 522.689 32.724C522.763 31.5767 523.176 30.4771 523.875 29.5644C524.575 28.6516 525.529 27.9667 526.617 27.5963C527.706 27.2258 528.88 27.1865 529.99 27.4832C531.101 27.7798 532.099 28.3993 532.858 29.2631C533.875 30.4214 534.391 31.9366 534.292 33.4751C534.192 35.0137 533.485 36.4497 532.327 37.4672H532.327Z" fill="#43DAA8"/>
<path d="M547.657 45.2512L548.974 44.5148L548.237 42.4633L546.753 42.7327C546.276 41.9205 545.644 41.2106 544.892 40.6435L545.341 39.0547L543.37 38.1248L542.456 39.4442C541.463 39.1703 540.423 39.1141 539.406 39.2794L538.725 38.0616L536.674 38.7981L536.923 40.1708C536.033 40.6897 535.266 41.3947 534.674 42.2375L533.13 41.8007L532.2 43.772L533.557 44.7123C533.336 45.6343 533.301 46.5909 533.453 47.5266L532.235 48.2074L532.972 50.259L534.344 50.0099C534.833 50.8489 535.488 51.5795 536.269 52.1572L535.802 53.8069L537.773 54.7368L538.741 53.3403C539.701 53.5912 540.702 53.6397 541.682 53.4828L542.418 54.8L544.469 54.0636L544.2 52.5788C545.056 52.077 545.798 51.4026 546.379 50.5987L548.013 51.061L548.943 49.0896L547.534 48.1132C547.768 47.1772 547.809 46.2037 547.657 45.2512ZM542.587 51.8839C541.505 52.2723 540.332 52.3312 539.216 52.053C538.101 51.7748 537.093 51.172 536.32 50.3208C535.547 49.4697 535.043 48.4085 534.873 47.2713C534.704 46.1342 534.875 44.9722 535.365 43.9323C535.856 42.8924 536.644 42.0214 537.629 41.4293C538.615 40.8371 539.754 40.5506 540.902 40.6058C542.051 40.661 543.157 41.0556 544.081 41.7395C545.005 42.4235 545.706 43.3661 546.094 44.4483C546.615 45.8994 546.538 47.498 545.881 48.8925C545.223 50.2869 544.038 51.363 542.587 51.8839Z" fill="#43DAA8"/>
<path d="M563.781 35.8406L564.688 34.6346L563.185 33.0558L561.936 33.9023C561.172 33.3521 560.307 32.9583 559.39 32.7434L559.159 31.1086L556.98 31.0548L556.677 32.631C555.658 32.7818 554.684 33.1509 553.821 33.713L552.706 32.8742L551.127 34.377L551.91 35.532C551.306 36.3662 550.889 37.321 550.688 38.3311L549.099 38.5558L549.045 40.7348L550.667 41.0464C550.837 41.979 551.192 42.8683 551.709 43.6626L550.87 44.7775L552.373 46.3564L553.528 45.5737C554.315 46.1435 555.209 46.5471 556.156 46.76L556.396 48.4576L558.575 48.5114L558.896 46.8429C559.875 46.6845 560.811 46.3242 561.643 45.7849L562.849 46.692L564.428 45.1892L563.581 43.94C564.161 43.1351 564.567 42.2185 564.774 41.2483L566.456 41.0104L566.51 38.8313L564.826 38.5078C564.661 37.5574 564.306 36.6501 563.781 35.8406ZM561.825 43.9564C560.992 44.7491 559.943 45.2771 558.81 45.4735C557.677 45.6699 556.512 45.526 555.46 45.0599C554.409 44.5938 553.52 43.8266 552.905 42.8551C552.29 41.8836 551.977 40.7516 552.005 39.6022C552.034 38.4528 552.402 37.3376 553.065 36.3976C553.727 35.4577 554.653 34.7352 555.725 34.3216C556.798 33.9079 557.97 33.8217 559.091 34.0737C560.213 34.3258 561.235 34.9048 562.028 35.7376C563.091 36.8544 563.667 38.3477 563.628 39.889C563.59 41.4304 562.942 42.8934 561.825 43.9564Z" fill="#43DAA8"/>
<path d="M277.317 122.182L281.196 121.874L281.678 116.273L277.908 115.307C277.665 112.891 276.947 110.547 275.796 108.409L278.559 105.169L274.939 100.868L271.377 102.977C269.345 101.266 266.968 100.015 264.408 99.3088L264.122 95.7222L258.522 95.2405L257.629 98.7257C254.985 98.9844 252.429 99.8111 250.135 101.149L246.986 98.4636L242.685 102.083L244.854 105.747C243.344 107.67 242.231 109.874 241.582 112.231L237.995 112.516L237.513 118.116L240.998 119.01C241.241 121.502 241.99 123.919 243.197 126.112L240.328 129.477L243.948 133.777L247.718 131.546C249.697 133.166 251.992 134.358 254.456 135.044L254.764 138.923L260.365 139.405L261.331 135.635C263.877 135.38 266.341 134.598 268.568 133.339L271.901 136.182L276.202 132.563L273.95 128.758C275.504 126.815 276.65 124.579 277.317 122.182ZM258.299 132.271C255.344 132.017 252.532 130.892 250.217 129.04C247.902 127.187 246.188 124.69 245.292 121.864C244.397 119.037 244.359 116.008 245.185 113.161C246.01 110.313 247.662 107.774 249.93 105.865C252.199 103.955 254.983 102.762 257.93 102.435C260.876 102.108 263.854 102.662 266.486 104.027C269.118 105.392 271.286 107.507 272.716 110.105C274.146 112.702 274.774 115.665 274.52 118.62C274.179 122.581 272.278 126.245 269.236 128.805C266.194 131.365 262.26 132.612 258.299 132.271Z" fill="#43DAA8"/>
<path d="M701.06 265.528H653.05C653.05 266.908 603.57 268.028 603.57 268.028C602.793 268.613 602.085 269.284 601.46 270.028C599.581 272.27 598.553 275.103 598.56 278.028V280.028C598.561 283.343 599.878 286.522 602.222 288.866C604.566 291.209 607.745 292.527 611.06 292.528H701.06C704.374 292.525 707.552 291.207 709.895 288.864C712.239 286.52 713.557 283.342 713.56 280.028V278.028C713.555 274.714 712.237 271.538 709.893 269.194C707.55 266.851 704.373 265.533 701.06 265.528Z" fill="#3F3D56"/>
<path d="M661.836 292.031H648.836V376.031H661.836V292.031Z" fill="#3F3D56"/>
<path d="M611.836 375.575C611.836 376.979 631.535 376.118 655.836 376.118C680.136 376.118 699.836 376.979 699.836 375.575C699.836 374.17 680.136 363.031 655.836 363.031C631.535 363.031 611.836 374.17 611.836 375.575Z" fill="#3F3D56"/>
<path d="M623.571 365.73L611.312 365.729L605.479 333.932L623.573 333.933L623.571 365.73Z" fill="#FFB8B8"/>
<path d="M626.698 377.613L587.168 377.612V377.112C587.168 375.091 587.566 373.091 588.339 371.224C589.112 369.357 590.245 367.661 591.674 366.232C593.103 364.803 594.799 363.67 596.666 362.897C598.532 362.124 600.533 361.726 602.554 361.726H602.555L626.699 361.727L626.698 377.613Z" fill="#2F2E41"/>
<path d="M605.235 346.012L580.794 291.204C578.754 286.584 578.528 281.366 580.162 276.588C581.796 271.809 585.171 267.822 589.613 265.42L642.626 236.992L666.817 234.934L689.132 232.906L689.293 233.178C689.499 233.526 694.297 241.813 691.053 250.9C688.593 257.793 682.194 263.177 672.035 266.902C648.32 275.597 620.925 283.029 610.248 285.82C609.776 285.941 609.335 286.16 608.954 286.463C608.573 286.767 608.261 287.147 608.037 287.58C607.813 288.008 607.68 288.477 607.646 288.959C607.612 289.44 607.679 289.924 607.841 290.379L630.547 341.393C630.784 342.04 630.87 342.733 630.797 343.418C630.724 344.104 630.495 344.763 630.126 345.345C629.758 345.928 629.261 346.418 628.674 346.778C628.086 347.139 627.424 347.359 626.738 347.423L609.771 348.658C609.627 348.672 609.484 348.678 609.341 348.678C608.472 348.678 607.622 348.426 606.893 347.953C606.165 347.48 605.589 346.805 605.235 346.012Z" fill="#2F2E41"/>
<path d="M631.571 365.73L619.312 365.729L613.479 333.932L631.573 333.933L631.571 365.73Z" fill="#FFB8B8"/>
<path d="M634.698 377.613L595.168 377.612V377.112C595.168 375.091 595.566 373.091 596.339 371.224C597.112 369.357 598.245 367.661 599.674 366.232C601.103 364.803 602.799 363.67 604.666 362.897C606.532 362.124 608.533 361.726 610.554 361.726H610.555L634.699 361.727L634.698 377.613Z" fill="#2F2E41"/>
<path d="M614.235 349.012L589.794 294.204C587.754 289.584 587.528 284.366 589.162 279.588C590.796 274.809 594.171 270.822 598.613 268.42L651.626 239.992L675.817 237.934L693.295 236.418L693.293 236.178C693.499 236.526 698.297 244.813 695.053 253.9C692.593 260.793 691.195 266.177 681.035 269.902C657.32 278.597 629.925 286.029 619.248 288.82C618.776 288.941 618.335 289.16 617.954 289.463C617.573 289.767 617.261 290.147 617.037 290.58C616.813 291.008 616.68 291.477 616.646 291.959C616.612 292.44 616.679 292.924 616.841 293.379L639.547 344.393C639.784 345.04 639.87 345.733 639.797 346.418C639.724 347.104 639.495 347.763 639.126 348.345C638.758 348.928 638.261 349.418 637.674 349.778C637.086 350.139 636.424 350.359 635.738 350.423L618.771 351.658C618.627 351.672 618.484 351.678 618.341 351.678C617.472 351.678 616.622 351.426 615.893 350.953C615.165 350.48 614.589 349.805 614.235 349.012Z" fill="#2F2E41"/>
<path d="M660.295 237.418C659.124 236.589 642.295 245.418 639.295 238.418C653.295 203.418 643.648 188.305 652.224 168.234C653.734 164.772 656.009 161.698 658.879 159.242C661.748 156.786 665.137 155.012 668.791 154.054L691.04 152.931L691.155 152.987C696.176 155.446 700.271 159.458 702.832 164.427C705.393 169.397 706.285 175.059 705.375 180.575C705.295 202.418 692.226 219.078 696.796 234.921C696.988 235.584 697.043 236.278 696.96 236.962C696.877 237.647 696.657 238.308 696.312 238.905C695.978 239.482 695.529 239.985 694.993 240.382C694.457 240.779 693.846 241.062 693.196 241.214L663.818 237.295C663.132 237.458 662.418 237.473 661.726 237.339C661.033 237.205 660.377 236.925 659.801 236.518L660.295 237.418Z" fill="#43DAA8"/>
<path d="M683.615 144.621C697.179 144.621 708.176 133.624 708.176 120.06C708.176 106.495 697.179 95.4987 683.615 95.4987C670.05 95.4987 659.053 106.495 659.053 120.06C659.053 133.624 670.05 144.621 683.615 144.621Z" fill="#FFB8B8"/>
<path d="M637.224 203.29L594.549 169.624C594.209 169.743 593.864 169.845 593.513 169.93C592.007 170.282 590.443 170.313 588.924 170.022C587.405 169.731 585.964 169.123 584.695 168.238C583.418 167.353 582.344 166.205 581.546 164.871C580.749 163.538 580.245 162.049 580.069 160.505C579.742 157.715 580.494 154.906 582.172 152.653C583.849 150.4 586.325 148.874 589.092 148.388C591.858 147.902 594.706 148.493 597.051 150.039C599.396 151.585 601.061 153.97 601.704 156.704C601.814 157.182 601.89 157.667 601.933 158.156L644.414 182.663L654.986 176.577L666.697 191.909L650.283 203.608C648.362 204.967 646.053 205.669 643.701 205.612C641.348 205.554 639.077 204.74 637.224 203.29Z" fill="#FFB8B8"/>
<path d="M671.904 196.684L647.556 180.126L658.999 163.92C660.518 161.767 662.749 160.222 665.298 159.556C667.847 158.89 670.549 159.146 672.927 160.28C675.333 161.426 677.249 163.395 678.33 165.831C679.411 168.267 679.585 171.009 678.822 173.562L671.904 196.684Z" fill="#43DAA8"/>
<path d="M691.438 142.604C690.133 143.175 687.46 132.776 688.657 130.697C690.438 127.604 690.332 127.626 691.514 125.579C692.696 123.533 692.961 120.732 691.43 118.932C689.9 117.131 686.358 117.37 685.66 119.628C686.109 115.34 681.868 111.893 677.667 110.925C673.466 109.956 669.034 110.557 664.81 109.695C659.908 108.695 654.807 104.586 656.763 99.1947C657.098 98.2972 657.601 97.4713 658.244 96.7606C660.504 94.2197 663.665 93.1347 666.756 92.0856C673.186 89.9032 679.792 87.6933 686.578 87.9342C692.169 88.2266 697.554 90.1425 702.074 93.4477C706.593 96.7528 710.051 101.304 712.024 106.543C712.492 107.854 712.854 109.2 713.108 110.569C715.437 123.093 708.164 135.447 696.352 140.216L691.438 142.604Z" fill="#2F2E41"/>
<path d="M342.619 277.94V279.94C342.622 283.254 343.94 286.432 346.283 288.775C348.627 291.119 351.805 292.437 355.119 292.44H445.119C448.434 292.438 451.612 291.121 453.956 288.777C456.3 286.433 457.618 283.255 457.619 279.94V277.94C457.625 275.015 456.598 272.181 454.719 269.94C454.093 269.195 453.385 268.524 452.609 267.94C452.609 267.94 403.129 266.82 403.129 265.44H355.119C351.805 265.444 348.628 266.763 346.285 269.106C343.942 271.449 342.623 274.626 342.619 277.94Z" fill="#3F3D56"/>
<path d="M407.343 291.943H394.343V375.943H407.343V291.943Z" fill="#3F3D56"/>
<path d="M400.343 362.943C376.042 362.943 356.343 374.082 356.343 375.487C356.343 376.891 376.042 376.03 400.343 376.03C424.643 376.03 444.343 376.891 444.343 375.487C444.343 374.082 424.643 362.943 400.343 362.943Z" fill="#3F3D56"/>
<path d="M443.761 332.185L461.855 332.184L456.022 363.981L443.763 363.982L443.761 332.185Z" fill="#FFB8B8"/>
<path d="M440.636 359.979L464.78 359.978H464.781C466.802 359.978 468.802 360.376 470.669 361.149C472.536 361.922 474.232 363.055 475.661 364.484C477.089 365.913 478.223 367.609 478.996 369.476C479.769 371.342 480.167 373.343 480.167 375.364V375.864L440.636 375.865L440.636 359.979Z" fill="#2F2E41"/>
<path d="M457.993 346.931C457.851 346.931 457.707 346.924 457.563 346.91L440.597 345.675C439.911 345.611 439.248 345.391 438.661 345.03C438.073 344.67 437.576 344.18 437.208 343.597C436.84 343.015 436.611 342.356 436.538 341.67C436.465 340.985 436.55 340.292 436.787 339.645L459.494 288.631C459.656 288.176 459.722 287.692 459.689 287.211C459.655 286.729 459.522 286.26 459.298 285.832C459.074 285.399 458.762 285.019 458.38 284.715C457.999 284.412 457.558 284.193 457.086 284.072C446.409 281.281 419.014 273.849 395.3 265.154C385.14 261.429 378.741 256.045 376.281 249.152C373.038 240.065 377.836 231.778 378.042 231.43L378.203 231.158L400.517 233.186L424.709 235.244L477.722 263.672C482.164 266.074 485.538 270.061 487.173 274.84C488.807 279.618 488.581 284.836 486.541 289.456L462.1 344.263C461.746 345.057 461.17 345.732 460.441 346.205C459.713 346.678 458.862 346.93 457.993 346.931Z" fill="#2F2E41"/>
<path d="M437.761 332.185L455.855 332.184L450.022 363.981L437.763 363.982L437.761 332.185Z" fill="#FFB8B8"/>
<path d="M434.636 359.979L458.78 359.978H458.781C460.802 359.978 462.802 360.376 464.669 361.149C466.536 361.922 468.232 363.055 469.661 364.484C471.089 365.913 472.223 367.609 472.996 369.476C473.769 371.342 474.167 373.343 474.167 375.364V375.864L434.636 375.865L434.636 359.979Z" fill="#2F2E41"/>
<path d="M450.993 349.931C450.851 349.931 450.707 349.924 450.563 349.91L433.597 348.675C432.911 348.611 432.248 348.391 431.661 348.03C431.073 347.67 430.576 347.18 430.208 346.597C429.84 346.015 429.611 345.356 429.538 344.67C429.465 343.985 429.55 343.292 429.787 342.645L452.494 291.631C452.656 291.176 452.722 290.692 452.689 290.211C452.655 289.729 452.522 289.26 452.298 288.832C452.074 288.399 451.762 288.019 451.38 287.715C450.999 287.412 450.558 287.193 450.086 287.072C439.409 284.281 412.014 276.849 388.3 268.154C378.14 264.429 371.741 259.045 369.281 252.152C366.038 243.065 370.836 234.778 371.042 234.43L371.203 234.158L393.517 236.186L417.709 238.244L470.722 266.672C475.164 269.074 478.538 273.061 480.173 277.84C481.807 282.618 481.581 287.836 479.541 292.456L455.1 347.263C454.746 348.057 454.17 348.732 453.441 349.205C452.713 349.678 451.862 349.93 450.993 349.931Z" fill="#2F2E41"/>
<path d="M365.504 155.887C367.158 153.798 369.505 152.369 372.12 151.858C374.736 151.347 377.448 151.789 379.766 153.103C382.058 154.401 383.817 156.469 384.733 158.939C385.648 161.409 385.661 164.123 384.768 166.602L378.048 185.269L350.524 174.809L365.504 155.887Z" fill="#43DAA8"/>
<path d="M420.534 248.769C419.958 249.177 419.302 249.457 418.609 249.591C417.917 249.725 417.203 249.71 416.517 249.547L374.139 239.466C373.489 239.314 372.878 239.031 372.342 238.634C371.806 238.236 371.357 237.734 371.023 237.157C370.678 236.559 370.458 235.899 370.375 235.214C370.291 234.53 370.347 233.836 370.539 233.173C375.109 217.33 369.117 197.69 361.96 178.827C361.05 173.311 361.942 167.648 364.503 162.679C367.064 157.71 371.159 153.698 376.18 151.239L376.295 151.183L398.544 152.306C402.198 153.264 405.587 155.038 408.456 157.494C411.325 159.95 413.601 163.024 415.111 166.486C423.687 186.557 426.143 212.311 422.617 245.221C422.542 245.926 422.317 246.607 421.958 247.219C421.598 247.831 421.113 248.36 420.534 248.769V248.769Z" fill="#43DAA8"/>
<path d="M407.964 122.246C410.137 108.856 401.044 96.2406 387.654 94.0678C374.265 91.895 361.649 100.988 359.476 114.377C357.303 127.767 366.396 140.383 379.786 142.556C393.175 144.728 405.791 135.635 407.964 122.246Z" fill="#FFB8B8"/>
<path d="M417.052 201.86L400.637 190.161L412.348 174.829L422.92 180.915L465.402 156.408C465.444 155.919 465.521 155.434 465.631 154.956C466.129 152.838 467.243 150.915 468.834 149.431C470.424 147.947 472.419 146.968 474.567 146.617C476.714 146.267 478.917 146.561 480.897 147.462C482.877 148.364 484.545 149.832 485.69 151.682C486.836 153.531 487.407 155.679 487.332 157.853C487.257 160.028 486.539 162.131 485.268 163.897C483.998 165.663 482.232 167.013 480.195 167.775C478.157 168.538 475.939 168.679 473.822 168.182C473.471 168.097 473.125 167.995 472.785 167.876L430.111 201.542C428.258 202.992 425.987 203.806 423.634 203.864C421.281 203.921 418.973 203.219 417.052 201.86Z" fill="#FFB8B8"/>
<path d="M388.513 171.814C387.749 169.261 387.923 166.519 389.004 164.083C390.085 161.647 392.002 159.678 394.407 158.531C396.785 157.398 399.488 157.142 402.036 157.808C404.585 158.474 406.817 160.019 408.336 162.171L419.779 178.378L395.43 194.936L388.513 171.814Z" fill="#43DAA8"/>
<path d="M392.785 114.758C393.247 115.574 393.439 116.516 393.332 117.447C393.225 118.379 392.826 119.253 392.191 119.944C388.702 123.89 387.772 129.998 389.029 135.259C390.539 141.572 394.545 146.952 398.502 152.098C402.458 157.243 406.552 162.528 408.29 168.782C412.405 183.588 401.352 199.377 387.149 205.242C372.946 211.107 356.771 209.25 341.817 205.716C330.53 203.048 318.882 199.124 311.163 190.468C303.444 181.812 301.396 167.157 309.599 158.959C316.029 152.532 326.042 152.014 334.99 150.403C343.937 148.793 354.072 144.049 355.271 135.037C356.462 126.082 348.072 118.681 346.492 109.787C344.527 98.7273 354.147 88.1881 365.033 85.4143C375.918 82.6406 387.399 85.7218 397.944 89.5949C406.055 92.5742 414.537 96.4609 417.624 105.289C419.341 110.199 418.007 115.793 413.774 118.814C407.326 123.415 399.038 118.974 392.725 114.654L392.785 114.758Z" fill="#2F2E41"/>
</g>
<defs>
<clipPath id="clip0_2_57">
<rect width="924" height="377.613" fill="white"/>
</clipPath>
</defs>
</svg>
