<svg version="1.2" xmlns="http://www.w3.org/2000/svg" viewBox="0 0 3200 2000" width="3200" height="2000">
	<title>unsubscribe-1-ai</title>
	<style>
		.s0 { fill: #ffffff } 
		.s1 { fill: #e1e8f5 } 
		.s2 { fill: #8a9db6 } 
		.s3 { fill: #bad4f4 } 
		.s4 { fill: #82b378 } 
		.s5 { fill: #2c3a64 } 
		.s6 { fill: #2b478b } 
		.s7 { fill: #233862 } 
		.s8 { fill: #ffb27d } 
		.s9 { fill: #98cbc7 } 
		.s10 { fill: #ed985f } 
		.s11 { fill: #486d63 } 
		.s12 { fill: #c4e8e3 } 
		.s13 { fill: #b1cff2 } 
		.s14 { fill: #ff0000 } 
		.s15 { fill: #cde0fb } 
		.s16 { fill: #afcdfb } 
		.s17 { fill: #ffad76 } 
		.s18 { fill: #739af0 } 
		.s19 { fill: #172b4c } 
		.s20 { fill: #5486d6 } 
		.s21 { fill: #23407a } 
		.s22 { fill: #ebf3fa } 
		.s23 { fill: #ffbf94 } 
		.s24 { fill: #2e3552 } 
	</style>
	<g id="Слой 1">
		<path id="&lt;Path&gt;" class="s0" d="m3200 2000h-3200v-2000h3200z"/>
		<g id="&lt;Group&gt;">
			<g id="&lt;Group&gt;">
				<path id="&lt;Path&gt;" class="s1" d="m275.6 1774.1c0 0-255.5-388.7 24.1-809.5 248.2-373.3 639.7-76.4 861.6-456.3 302.5-518.1 1812.4-315.8 1621.2 481.3-92.6 385.7 419.9 399.7 229.3 785.3z"/>
				<g id="&lt;Group&gt;">
					<path id="&lt;Path&gt;" class="s2" d="m2183.1 997.4c0 0-46.2-61.2 2.8-95.1 0 0 35.4-18.6 63.2-15.2 0 0-43.6 63.7-31.3 71.1 12.4 7.3 43.5-74.5 43.5-74.5 0 0 78.1-2.6 102.3 10.9 0 0-69.8 50.2-56 54.3 13.8 4.1 88.8-44.7 88.8-44.7 0 0 71.5 16.8 64.9 60.6-6.6 43.9-32.3 56-43.2 54.1-10.9-1.9-73.4-30.3-75.3-21.4-2 8.9 34.7 40.6 61.6 43.6 0 0-54.4 53.1-87.3 34.7-32.8-18.3-34.1-44.2-54.6-55.2-20.5-10.9-38.6-12-30.5-1.6 8.1 10.3 45.8 22.3 56.5 44.4 10.7 22.1 20.7 37.2-14 29.7-34.8-7.4-90.1-36.6-90.8-66.2-0.6-29.5-0.6-29.5-0.6-29.5z"/>
					<g id="&lt;Group&gt;">
						<path id="&lt;Path&gt;" class="s3" d="m2183.7 1026.9c-12.3 1.5-48.5 35.2-48.5 35.2l5.3-12.2c31.2-24.3 42.6-52.5 42.6-52.5 46.8-53.4 242.7-33.6 242.7-33.6-256.8-7.6-242.1 63.1-242.1 63.1z"/>
						<path id="&lt;Path&gt;" class="s4" d="m2140.4 1057.3c-25.7 21-42.7 77.7-42.7 77.7l-7.6-1.1c6.4-55.5 50.4-84 50.4-84 0 0 25.7-13.6-0.1 7.4z"/>
					</g>
				</g>
				<g id="&lt;Group&gt;">
					<path id="&lt;Path&gt;" class="s2" d="m1956.6 851.1c0 0-102.4-57.3-54.6-135.1 0 0 38.2-47.7 79.1-60 0 0-21.8 116 0 118.7 21.9 2.7 15.1-131 15.1-131 0 0 107.8-51.9 150.1-47.8 0 0-66.9 113.3-45.1 110.6 21.9-2.7 96.9-117.4 96.9-117.4 0 0 110.6-20.5 128.3 45.1 17.7 65.5-10.9 98.2-27.3 102.3-16.4 4.1-121.4 2.7-118.7 16.4 2.7 13.6 73.7 35.5 113.3 23.2 0 0-43.7 107.8-101 102.3-57.3-5.4-75.1-40.9-110.6-43.6-35.5-2.8-61.4 6.8-43.6 16.3 17.7 9.6 77.7 3.2 106.4 27.5 28.7 24.4 51.9 39.4-1.4 50.3-53.2 10.9-148.7 4.1-167.8-36.8-19.1-41-19.1-41-19.1-41z"/>
					<g id="&lt;Group&gt;">
						<path id="&lt;Path&gt;" class="s3" d="m1975.7 892.1c-16.4 9.5-46.4 79.1-46.4 79.1v-20.4c28.6-53.3 27.3-99.7 27.3-99.7 32.7-103.7 319.3-196.5 319.3-196.5-364.4 147.4-300.2 237.5-300.2 237.5z"/>
						<path id="&lt;Path&gt;" class="s4" d="m1933.7 961.3c-23.1 45.2-12 135.2-12 135.2l-11.4 3.1c-25.2-81.7 19-148.8 19-148.8 0 0 27.6-34.8 4.4 10.5z"/>
					</g>
				</g>
				<g id="&lt;Group&gt;">
					<path id="&lt;Path&gt;" class="s2" d="m1390.9 923.1c-25.9 42.5-131.4 38.4-188.4 20-57-18.4-29.7-32.1 4.6-55.3 34.4-23.2 99.4-8.9 120-17.2 20.6-8.3-6.6-21.9-45.9-23.3-39.2-1.3-62.9 35.5-126.4 34.5-63.5-1-98.3-124.4-98.3-124.4 41.9 18.3 122.3 2.9 127-11.7 4.6-14.6-110.7-25.9-128.1-32.3-17.5-6.5-44.9-45.9-17.5-115.5 27.3-69.6 146-33.8 146-33.8 0 0 68.3 134.7 91.9 140.4 23.6 5.6-35.9-126.6-35.9-126.6 46.8 0.6 158.7 70.5 158.7 70.5 0 0-23.7 145.7 0.6 145.4 24.2-0.4 14.4-130.1 14.4-130.1 43.3 18.4 79.4 75.4 79.4 75.4 42.9 91-76.2 141.4-76.2 141.4 0 0 0 0-25.9 42.6z"/>
					<g id="&lt;Group&gt;">
						<path id="&lt;Path&gt;" class="s3" d="m1090.7 626.5c0 0 302.8 136.4 326.1 254 0 0-7.1 50.7 17.9 112.5l-2.5 22.4c0 0-24.5-79.9-41.3-92.3 0 0 81.2-91-300.2-296.6z"/>
						<path id="&lt;Path&gt;" class="s4" d="m1434.7 993c0 0 40.3 78.9 2.8 165.4l-12.1-4.8c0 0 23-97.2 3.1-149.6-19.8-52.4 6.2-11 6.2-11z"/>
					</g>
				</g>
				<path id="&lt;Path&gt;" class="s2" d="m1194.3 1262.1l-7.2-1.1c0 0 0.5-49.9-14.1-77.1-0.6-1-1.4-2.4-2.5-4.2q0 0 0 0c-2.5-3.8-4.2-6.6-5.4-8.7-7.6-12-18.4-27.6-24.8-30.4 0 0 0.7-1.2 1.1-3.3q-0.5 1.6-1.1 3.3c-8.8 26.1-66.3 36.8-99.4 33.8-33.1-2.9-20-13.7-4.3-30.4 15.8-16.8 52.7-17 62.8-24 10.1-7-6.3-11-27.6-7-21.4 4.1-29.8 26.9-64.2 34.1-34.4 7.3-68.3-55.2-68.3-55.2 24.8 4.7 66.5-13.4 67.2-21.9 0.7-8.4-63-0.4-73.3-1.8-10.2-1.3-29.8-19.3-23.5-60.3 6.3-41 74.8-36.1 74.8-36.1 0 0 53.4 64.5 66.9 64.6 13.4 0.2-34.9-64-34.9-64 25.4-5.4 94.4 18.7 94.4 18.7 0 0 5 81.7 18.1 78.6 13.1-3.2-8.1-72.1-8.1-72.1 25.7 4.6 52.1 31 52.1 31 34.4 44-23.9 85.8-23.9 85.8 0 0 2.4 28.3 23.4 58.6 0 0 31.5 37.8 21.8 89.1z"/>
				<g id="&lt;Group&gt;">
					<path id="&lt;Path&gt;" class="s5" d="m875.8 521.5l-96.4 104.3c0 0-5.9-18.7-16.8-14.1-16.8 7.1-44.2-31.3-29.7-76.8 1.6-5 3.3-9.4 5.2-13.5-3.5 1.1-7.4 1.9-10.9 1.6-9.3-1-21-26.1-22.1-34.3-1.1-8.1 3.6-34.1 17.1-40.7 13.5-6.5 32.9 4.9 32.9 4.9-6-10.6-32-10-32-10 52.2-5.7 59.6 28 60.2 31.2 40.4-29.8 92.5 47.4 92.5 47.4z"/>
					<path id="&lt;Path&gt;" class="s6" d="m908.9 1730.3l-23.5 8.7c0 0-101.8-141.2-114.4-265.5-2.2-22.2-1.5-43.7 3.4-63.6 0 0-1-5.7-2.8-15.7-0.8-4.7-1.8-10.3-2.9-16.8-3.3-19-7.9-44.9-13.1-74.5-11.9-68-27.5-155-39.5-218.9l6.3-2 68.3-22.1 14.2-44.9 50.9-13.4c0 0 11.4 22.3 21.5 127.4 1.9 13.8 3.6 29 4.9 45.4 3.9 50.4 4.2 112.8-4.9 184.1-2.3 18.3-5.2 37.1-8.9 56.5-2.7 14.2-3.1 33.6-2 55.8 5.2 101.6 42.5 259.5 42.5 259.5z"/>
					<path id="&lt;Path&gt;" class="s7" d="m882.2 1174.4l-110.6 219.8c-0.8-4.7-1.8-10.3-2.9-16.8-3.3-19-7.9-44.9-13.1-74.5-11.9-68-27.5-155-39.5-218.9l6.3-2 68.3-22.1 14.2-44.9 50.9-13.4c0 0 11.4 22.3 21.5 127.4 1.9 13.8 3.6 29 4.9 45.4z"/>
					<path id="&lt;Path&gt;" class="s6" d="m804.1 1146.2c-9.9 68.9-24.7 158.1-43.1 226.6-9.8 36.3-20.5 66.8-32 85.5-4 6.4-8.3 17.1-12.9 30.7-26.5 80.4-59.3 262.4-59.3 262.4l-14.9 6.1c0 0-57.5-163.6-7.7-296.4 5.1-13.5 11.3-26.7 18.8-39.4 0.8-1.5 1.4-3.1 1.2-4.8q0 0 0 0c-0.7-5.6-2.3-19.4-4.1-38.9-5.1-53.7-9.9-235.2-12.6-277.9-5.5-87.5 36.1-124 36.1-124 0 0 114.5 43.2 157.4 31.8l2.6 21.9c0 0-28.2 116.5-29.5 116.4z"/>
					<path id="&lt;Path&gt;" class="s8" d="m861.9 799.4c-3.8-10.6-5.5-20.1-5.7-28.7-0.4-11.4 1.7-21.2 4.7-29 0.4-1.2 0.7-2.5 1.5-3.6q1.3-3.2 2.7-5.8c4.5-8.5 9.1-13 9.1-13 3.5-2.9 8.6-2.3 14.7 1.2 0 0 10.9 7.6 17.1 13.9 0.2 0.1 0.5 0.2 0.5 0.4 1.3 1.2 2.7 2.7 4.3 4.2 0.4 0.2 0.8 0.7 1 1q2 2.1 4 4.3 2.7 3 5.4 6.1c35 39 78.6 100.9 103.4 115.6 10.7 6.4 52.5 12.3 85.5 16.2 23.7 2.7 42.8 4.2 42.8 4.2l3.3 21.4c0 0-1.4 0.4-3.8 1-7.6 1.8-26.1 6.4-47.2 10.6-31.8 6.6-70.1 12.5-87.5 8.1-26.4-6.7-75.7-36.9-112.4-71-1-0.8-1.8-1.7-2.6-2.5-19.2-18.2-34.7-37.4-40.8-54.6z"/>
					<path id="&lt;Path&gt;" class="s8" d="m870.8 763.5c-12.5 8.1-27.9 14.7-47.2 18.6-72.4 14.5-98.2-47-107.4-89 10-5.3 19.2-6.3 24.6-6.8 5.2-0.5 10.7-0.7 15.2-0.8 8.2-6 21-30.9 24.7-70.2l3.4 1.1 56.2 17.1c0 0-3.1 17.9-4.8 34.9-1.4 13.3-1.9 26 0.5 29.2 4.4 1.1 7.1 1.8 7.1 1.8q0 0 0 0c0.7 1.3 16.4 28.8 27.7 64.1z"/>
					<path id="&lt;Path&gt;" class="s9" d="m896 808.7c-0.4 1.6-0.8 3.1-1.2 4.6-12.7 42.5-23 212.3-23 212.3 6.7 21.2-116.6 25.5-184.7 15.7-24.7-3.5-42.1-9-43.3-16.1-12.2-27.5 17.6-78.7 34.8-104.8q3.2-4.9 5.5-10.2c3.9-9 5.8-18.8 5.4-28.6-0.5-13.5-1.7-26.5-3.1-38.8-2.6-23.1-6.1-43.2-8-57.5q0 0 0 0c3.6-3.6 7.1-6.9 10.3-10 5-4.8 9.3-9.3 12.4-13.7 3.3-4.7 5.2-9.3 4.8-14.2-0.3-3.7-1-7.4-1.9-11q-0.7-2.7-1.4-5.2c-5.6-18.1-15.7-33.8-15.7-33.8 18.4-10.8 53.9-11.1 53.9-11.1 0 0 0.2 1.9 0.7 5.1 1.7 12.7 6.5 45.4 11.5 50.9 6.2 7 104.3 27.2 107.8 16 3.3-10.9-17-57.1-17.7-58.9q0 0 0 0c31.4 7.4 45 15.9 45.7 16.4q-0.1 0-0.1 0c-17 14.9 16.2 52.2 7.3 92.9z"/>
					<path id="&lt;Path&gt;" class="s10" d="m840.3 633.5c0 0-3.1 17.9-4.8 34.9-32-4.1-46.1-35.1-51.4-52z"/>
					<path id="&lt;Path&gt;" class="s8" d="m849.4 650.6c0 0-76-6.3-71.4-53.6 4.7-47.3-1.9-80 46.8-78 48.8 2.1 56.4 21.1 58.7 37.2 2.3 16.2-14.2 94.9-34.1 94.4z"/>
					<path id="&lt;Path&gt;" class="s5" d="m879.9 589c-7.3 0.1-6.5-24.9-9.1-37.3-1.9-9.1-10.1-19.1-14.3-23.7-2.1 5.4-22.7 56.9-62.6 70.7 0 0 19.1-13.8 34.2-34.2-8.2 7.7-17.6 13.7-27.6 15.3-32.8 5-45.8-5-45.8-5 0 0 26.5-17 34.9-50.4 0 0 30.2-31.1 69.4-4.1 5.4-3.8 14.6-6 24.9 9.4 15.5 23.1-4 59.3-4 59.3z"/>
					<path id="&lt;Path&gt;" class="s8" d="m1223.3 883.5c-7.6 7.3-15.3 25.4-38.7 25.1-16.7-0.2-33.7 1.7-41.9 2.7-3.1 0.6-5 0.8-5 0.8l-0.8-26.5c0 0 0.3 0 1.1-0.1 5.6-0.9 34.4-5.3 45.7-12.9 12.8-8.5 42.7-0.6 42.7-0.6 0 0 4.6 4.4-3.1 11.5z"/>
					<path id="&lt;Path&gt;" class="s7" d="m728.7 1769.7h-118.1c0 0-2.9-18 3.3-31.7 5.9-13.1 15.2-19.1 13-34.9 7.5 7.7 19.7 16.4 36.8 14.1 2.1 3.4 13.5 21.5 20.5 26.5 7.7 5.6 42.1 3.6 44.5 26z"/>
					<path id="&lt;Path&gt;" class="s7" d="m982.3 1769.7h-118.2c0 0-4.4-18.9 3.4-31.7 6.8-11.3 4.2-17.8-0.9-27.2 5.4 2.2 12.3 4.2 19.9 3.8 5.9-0.4 12.1-3.1 17.6-6.2 5.1 5.8 26.8 30.4 33.6 35.3 7.8 5.6 42.2 3.6 44.6 26z"/>
					<path id="&lt;Path&gt;" class="s0" d="m831.3 626.7c0 0 1.1-6.3 16.5-6.3 0 0 12.9 0 12.9 6.8 0 0-12.2 5.6-29.4-0.5z"/>
					<path id="&lt;Path&gt;" class="s11" d="m703.2 924c-4.6 29.6-26 89-16.1 117.3-24.7-3.5-42.1-9-43.3-16.1-12.2-27.5 17.6-78.7 34.8-104.8q3.2-4.9 5.5-10.2c3.9-9 5.8-18.8 5.4-28.6-0.5-13.5-1.7-26.5-3.1-38.8 0 0 21.8 49.8 16.8 81.2z"/>
					<path id="&lt;Path&gt;" class="s9" d="m888.7 715.8c1.7-0.5 40.1 41.9 40.6 43.8-9.4 1.5-29.4 42.9-34.5 53.7-4.5 9.6-23.6-62.6-24.4-88.9 7.9-5.5 18.3-8.6 18.3-8.6z"/>
					<g id="&lt;Group&gt;">
						<path id="&lt;Path&gt;" class="s8" d="m689.3 1097.4l-19.6 13.1c0 0-4.9-6.2-12.8-16.1-2.3-3-3.6-4.8-3.6-4.8-6.2-8-13.4-17.8-21.3-28.5l-0.1-0.1c-13.3-18.6-27.8-39.7-38.9-58.8-7.8-13.6-13.8-26.1-16.7-36-0.3-1-0.5-1.8-0.7-2.9-5.8-25 4.8-74.7 21.6-123.1 2.3-6.7 4.7-13.3 7-19.8 9-23.7 19-46.1 29.1-64.1 5.9-10.9 11.8-20.3 17.5-27.4 1.9-2.5 3.8-4.9 5.8-6.9q1.6-1.9 3.2-3.6c11.8 1 36.5 5.7 54.8 26.9q-0.5 1.6-1 3.3c-7.4 23.9-18.8 53.3-30.7 82-6.4 15.8-13 31.5-18.8 46.2-3.7 8.8-7 17.2-10 25-5.6 14.8-9.8 27.2-11.5 35.8-1.1 5.7 0.5 16.2 3.5 29.2 5.2 22.7 15.1 53.2 24.3 79.1 3.8 10.8 7.5 20.9 10.6 29.2 5 13.5 8.3 22.3 8.3 22.3z"/>
						<path id="&lt;Path&gt;" class="s9" d="m697.9 820.1c-19.6-29.6-75.7-42.3-75.7-42.3 31.7-100.4 114.8-91.1 114.8-91.1 0 0-30.3 104.5-39.1 133.4z"/>
						<path id="&lt;Path&gt;" class="s8" d="m689.3 1097.4c0 0 7.7 23.3 13 26.8 4.4 2.9 7.7 15 10.1 19.3 5.4 9.6-0.4 23.2-2.4 24.9-2 1.7-16.4-9.8-22.8-15.5-6.3-5.8-11.2-23.9-11.7-29.4-0.6-5.4-5.8-13-5.8-13z"/>
						<path id="&lt;Path&gt;" class="s8" d="m689.4 1100.4c0 0 15.6 7.9 17.7 14.2 2.1 6.4 10.8 19.1 9.9 20.6-0.9 1.6-14.5-7.1-19.1-14.9-4.6-7.9-8.5-19.9-8.5-19.9z"/>
					</g>
				</g>
				<g id="&lt;Group&gt;">
					<path id="&lt;Path&gt;" class="s11" d="m1060.2 1026.8l570.6-341.6c31.5-18.8 70.7-18.8 102.2 0l570.6 341.6v556.8l-1243.4-62.4z"/>
					<path id="&lt;Path&gt;" class="s12" d="m2196.6 1669.7h-1029.4v-889.6h1029.4z"/>
					<g id="&lt;Group&gt;">
						<path id="&lt;Path&gt;" class="s13" d="m1198.6 818.9c0-5.8 4.8-10.6 10.6-10.6 5.9 0 10.6 4.8 10.6 10.6 0 5.9-4.7 10.6-10.6 10.6-5.8 0-10.6-4.7-10.6-10.6z"/>
						<path id="&lt;Path&gt;" class="s13" d="m2143.3 818.9c0-5.8 4.8-10.6 10.6-10.6 5.9 0 10.6 4.8 10.6 10.6 0 5.9-4.7 10.6-10.6 10.6-5.8 0-10.6-4.7-10.6-10.6z"/>
						<g id="&lt;Group&gt;">
							<path id="&lt;Path&gt;" class="s13" d="m2153.9 820.1h-944.7v-2.3h944.7z"/>
						</g>
						<g id="&lt;Group&gt;">
							<path id="&lt;Path&gt;" class="s13" d="m1208.1 1759.4v-944.7h2.3v944.7z"/>
						</g>
						<g id="&lt;Group&gt;">
							<path id="&lt;Path&gt;" class="s13" d="m2153.2 1759.4v-944.7h2.3v944.7z"/>
						</g>
					</g>
					<g id="&lt;Group&gt;">
						<path id="&lt;Path&gt;" class="s9" d="m2303.6 1025.3v744.3h-1243.4v-744.3l621.7 372.2z"/>
						<path id="&lt;Path&gt;" class="s11" d="m1060.2 1769.7l569.5-408.4c31.2-22.3 73.2-22.3 104.4 0l569.5 408.4z"/>
					</g>
					<path id="&lt;Path&gt;" class="s14" d="m1744.1 1059.2l-135-135c-2.8-2.8-2.8-7.2 0-9.9l0.8-0.8c2.7-2.7 7.1-2.7 9.8 0l135 135c2.7 2.7 2.7 7.1 0 9.9l-0.8 0.8c-2.7 2.7-7.1 2.7-9.8 0z"/>
					<path id="&lt;Path&gt;" class="s14" d="m1609.9 1059.2l-0.8-0.8c-2.8-2.8-2.8-7.2 0-9.9l135-135c2.7-2.7 7.1-2.7 9.8 0l0.8 0.8c2.7 2.7 2.7 7.1 0 9.9l-135 135c-2.7 2.7-7.1 2.7-9.8 0z"/>
				</g>
				<g id="&lt;Group&gt;" style="opacity: .5">
					<path id="&lt;Path&gt;" class="s15" d="m1659.7 414.8l53.6 118.3-197.6 89.5-53.6-118.3 125.6 14.4z"/>
					<path id="&lt;Path&gt;" class="s13" d="m1462.1 504.3l197.6-89.5-59.1 99.5c-4.6 7.9-13.7 12-22.7 10.4z"/>
				</g>
				<g id="&lt;Group&gt;" style="opacity: .5">
					<path id="&lt;Path&gt;" class="s15" d="m498.3 1187l28.2 75.6-126.3 47.1-28.2-75.6 77.3 14.3z"/>
					<path id="&lt;Path&gt;" class="s13" d="m372 1234.1l126.3-47.1-40.8 59.2c-3.3 4.7-9 6.9-14.5 5.5z"/>
				</g>
				<g id="&lt;Group&gt;" style="opacity: .5">
					<path id="&lt;Path&gt;" class="s15" d="m2661.3 736.9l-39.6 148.5-248-66.2 39.6-148.4 104.2 107.3z"/>
					<path id="&lt;Path&gt;" class="s13" d="m2413.3 670.8l248 66.1-128.7 46.9c-10.2 3.7-21.5 0.7-28.6-7.5z"/>
				</g>
				<g id="&lt;Group&gt;">
					<g id="&lt;Group&gt;">
						<path id="&lt;Compound Path&gt;" class="s0" d="m443.9 1521.3q0 0 0 0c-6 0-11.8-0.1-17.3-0.2-0.6 0-1.1-0.6-1.1-1.2 0-0.6 0.5-1.1 1.2-1.1 5.4 0.1 11.2 0.2 17.2 0.2 0.6 0 1.2 0.6 1.2 1.2 0 0.6-0.6 1.1-1.2 1.1zm17.3-0.1c-0.6 0-1.1-0.5-1.2-1.1 0-0.7 0.5-1.2 1.2-1.2 5.5-0.1 11.3-0.2 17.2-0.4 0.7-0.1 1.2 0.5 1.2 1.1 0 0.6-0.5 1.2-1.1 1.2-5.9 0.2-11.7 0.3-17.3 0.4q0 0 0 0zm-51.8-0.9q0 0-0.1 0c-6-0.3-11.9-0.8-17.2-1.4-0.6 0-1.1-0.6-1-1.2 0-0.7 0.6-1.1 1.2-1.1 5.4 0.6 11.1 1.1 17.2 1.4 0.6 0.1 1.1 0.6 1.1 1.3-0.1 0.6-0.6 1-1.2 1zm86.3-0.2c-0.6 0-1.1-0.5-1.1-1.1 0-0.6 0.5-1.2 1.1-1.2 5.5-0.3 11.3-0.6 17.2-0.9 0.7 0 1.2 0.4 1.3 1.1 0 0.6-0.5 1.1-1.1 1.2-5.9 0.3-11.8 0.6-17.3 0.9q0 0-0.1 0zm34.6-2c-0.6 0-1.1-0.5-1.2-1.1 0-0.6 0.4-1.2 1.1-1.2q8.5-0.6 17.2-1.2c0.6-0.1 1.2 0.4 1.2 1 0.1 0.7-0.4 1.2-1 1.3q-8.8 0.6-17.3 1.2 0 0 0 0zm-155.2-1.6q-0.1 0-0.2 0c-6.3-1.1-12-2.5-16.9-4-0.6-0.2-0.9-0.9-0.8-1.5 0.2-0.6 0.9-0.9 1.5-0.7 4.8 1.5 10.4 2.8 16.6 4 0.6 0.1 1.1 0.7 0.9 1.3-0.1 0.6-0.5 0.9-1.1 0.9zm189.6-1c-0.6 0-1.1-0.5-1.1-1.1-0.1-0.6 0.4-1.2 1-1.2q8.5-0.7 17.2-1.5c0.7-0.1 1.2 0.4 1.3 1 0 0.6-0.4 1.2-1.1 1.3q-8.7 0.8-17.2 1.5 0 0-0.1 0zm34.4-3.1c-0.5 0-1-0.5-1.1-1.1-0.1-0.6 0.4-1.2 1-1.2q8.6-0.9 17.2-1.8c0.6 0 1.2 0.4 1.3 1.1 0 0.6-0.4 1.2-1 1.2q-8.7 0.9-17.2 1.7-0.1 0.1-0.2 0.1zm34.4-3.6c-0.6 0-1.1-0.4-1.1-1-0.1-0.6 0.4-1.2 1-1.3q8.5-0.9 17.2-1.9c0.6 0 1.2 0.4 1.2 1 0.1 0.7-0.3 1.3-1 1.3q-8.6 1-17.2 1.9 0 0-0.1 0zm-290.7-3.6q-0.4 0-0.7-0.2c-3.3-2.4-5.7-5.2-7.1-8.2-1.1-2.1-1.9-4.3-2.6-6.5-0.2-0.6 0.2-1.2 0.8-1.4 0.6-0.2 1.2 0.1 1.4 0.7q1 3.1 2.4 6.3c1.3 2.6 3.5 5 6.5 7.2 0.5 0.4 0.6 1.1 0.2 1.7-0.2 0.3-0.6 0.4-0.9 0.4zm325.1-0.2c-0.6 0-1.1-0.5-1.2-1.1-0.1-0.6 0.4-1.2 1-1.2q8.6-1 17.2-2.1c0.6-0.1 1.2 0.4 1.3 1 0 0.7-0.4 1.2-1 1.3q-8.7 1-17.2 2-0.1 0.1-0.1 0.1zm34.3-4.2c-0.6 0-1.1-0.4-1.2-1-0.1-0.6 0.4-1.2 1-1.3q8.5-1.1 17.1-2.2c0.6 0 1.2 0.4 1.3 1 0.1 0.7-0.4 1.2-1 1.3q-8.6 1.1-17.1 2.2-0.1 0-0.1 0zm34.2-4.4c-0.6 0-1.1-0.4-1.2-1-0.1-0.6 0.4-1.2 1-1.3q8.6-1.1 17.1-2.3c0.7-0.1 1.2 0.4 1.3 1 0.1 0.6-0.3 1.2-1 1.3q-8.5 1.2-17.1 2.3-0.1 0-0.1 0zm34.2-4.6c-0.5 0-1-0.5-1.1-1-0.1-0.7 0.4-1.2 1-1.3q8.6-1.2 17.1-2.4c0.6-0.1 1.2 0.3 1.3 1 0.1 0.6-0.4 1.2-1 1.3q-8.5 1.2-17.1 2.3-0.1 0.1-0.2 0.1zm34.3-4.9c-0.6 0-1.1-0.4-1.2-1-0.1-0.6 0.4-1.2 1-1.3q8.6-1.2 17.1-2.4c0.6-0.1 1.2 0.3 1.3 0.9 0.1 0.7-0.3 1.2-1 1.3q-8.5 1.3-17.1 2.5-0.1 0-0.1 0zm34.2-5c-0.6 0-1.1-0.4-1.2-1-0.1-0.6 0.4-1.2 1-1.3q8.6-1.3 17.1-2.5c0.6-0.1 1.2 0.3 1.3 0.9 0.1 0.7-0.4 1.2-1 1.3q-8.5 1.3-17.1 2.6-0.1 0-0.1 0zm34.1-5.2c-0.5 0-1-0.4-1.1-0.9-0.1-0.7 0.3-1.2 0.9-1.3q8.6-1.4 17.1-2.7c0.6-0.1 1.2 0.3 1.3 1 0.1 0.6-0.3 1.2-0.9 1.3q-8.5 1.3-17.1 2.6-0.1 0-0.2 0zm-540.8-2.6q-0.1 0-0.3 0c-0.6-0.1-1-0.7-0.9-1.4 1.1-5.4 3.7-10.7 7.8-15.7 0.4-0.5 1.1-0.5 1.6-0.1 0.5 0.4 0.5 1.1 0.1 1.6-3.7 4.6-6.2 9.6-7.2 14.7-0.1 0.5-0.6 0.9-1.1 0.9zm575-2.7c-0.6 0-1.1-0.4-1.2-1-0.1-0.6 0.4-1.2 1-1.3q8.6-1.3 17-2.7c0.7-0.1 1.3 0.3 1.4 1 0.1 0.6-0.4 1.2-1 1.3q-8.5 1.3-17.1 2.7 0 0-0.1 0zm34.1-5.4c-0.6 0-1.1-0.4-1.1-1-0.1-0.6 0.3-1.2 0.9-1.3q8.6-1.4 17.1-2.8c0.6-0.1 1.2 0.3 1.3 0.9 0.1 0.7-0.3 1.3-1 1.4q-8.4 1.3-17 2.7-0.1 0.1-0.2 0.1zm34.1-5.6c-0.6 0-1-0.4-1.1-1-0.1-0.6 0.3-1.2 0.9-1.3q8.6-1.5 17.1-2.9c0.6-0.1 1.2 0.3 1.3 1 0.1 0.6-0.3 1.2-1 1.3q-8.4 1.4-17 2.8-0.1 0.1-0.2 0.1zm34.1-5.8c-0.6 0-1-0.4-1.1-0.9-0.1-0.7 0.3-1.2 0.9-1.4q8.7-1.4 17-2.9c0.7-0.1 1.3 0.4 1.4 1 0.1 0.6-0.3 1.2-1 1.3q-8.3 1.4-17 2.9-0.1 0-0.2 0zm34.1-5.8c-0.6 0-1.1-0.4-1.2-1-0.1-0.6 0.3-1.2 1-1.3q8.7-1.5 17-3c0.6-0.1 1.2 0.3 1.3 1 0.1 0.6-0.3 1.2-0.9 1.3q-8.3 1.5-17 3-0.1 0-0.2 0zm-691.2-1.4c-0.4 0-0.7-0.2-1-0.5-0.3-0.5-0.2-1.2 0.3-1.6 4.4-3 9.5-6 15.1-8.7 0.6-0.3 1.3-0.1 1.6 0.5 0.2 0.6 0 1.3-0.6 1.5-5.5 2.7-10.5 5.6-14.8 8.6q-0.3 0.2-0.6 0.2zm725.2-4.6c-0.5 0-1-0.4-1.1-0.9-0.1-0.7 0.3-1.3 0.9-1.4q8.8-1.5 17.1-3c0.6-0.1 1.2 0.3 1.3 0.9 0.1 0.7-0.3 1.3-0.9 1.4q-8.2 1.4-17.1 3-0.1 0-0.2 0zm34.1-6.1c-0.6 0-1-0.4-1.1-0.9-0.2-0.6 0.3-1.2 0.9-1.4q9-1.6 17-3.1c0.6-0.1 1.2 0.3 1.4 1 0.1 0.6-0.4 1.2-1 1.3q-8 1.5-17 3.1-0.1 0-0.2 0zm-728.5-4.7c-0.4 0-0.9-0.3-1-0.8-0.3-0.6 0-1.2 0.6-1.4 5.1-1.9 10.7-3.8 16.5-5.5 0.6-0.2 1.3 0.1 1.4 0.7 0.2 0.7-0.1 1.3-0.7 1.5-5.8 1.7-11.3 3.5-16.4 5.4q-0.2 0.1-0.4 0.1zm762.6-1.5c-0.6 0-1.1-0.4-1.2-0.9-0.1-0.7 0.3-1.3 0.9-1.4 6.5-1.2 12.2-2.2 17.1-3.2 0.6-0.1 1.2 0.3 1.3 1 0.1 0.6-0.3 1.2-0.9 1.3-4.8 0.9-10.5 2-17 3.2q-0.1 0-0.2 0zm34.1-6.4c-0.6 0-1.1-0.4-1.2-0.9-0.1-0.7 0.3-1.3 1-1.4q1.7-0.3 1.9-0.4c0.7-0.1 1.4 0.4 1.4 1.2 0 0.9-0.1 0.9-2.9 1.5q-0.1 0-0.2 0zm-763.6-2.1c-0.5 0-1-0.3-1.1-0.9-0.1-0.6 0.2-1.2 0.9-1.4 5.3-1.3 11-2.6 16.9-3.8 0.6-0.1 1.2 0.3 1.4 0.9 0.1 0.7-0.3 1.3-0.9 1.4-5.9 1.2-11.5 2.5-16.9 3.8q-0.1 0-0.3 0zm33.9-7c-0.5 0-1-0.4-1.1-0.9-0.1-0.7 0.3-1.3 0.9-1.4 5.5-0.9 11.3-1.8 17.2-2.7 0.6-0.1 1.2 0.4 1.3 1 0 0.6-0.4 1.2-1 1.3-5.8 0.9-11.6 1.8-17.1 2.7q-0.1 0-0.2 0zm34.3-5c-0.6 0-1.1-0.4-1.2-1 0-0.6 0.4-1.2 1-1.2 5.7-0.7 11.5-1.4 17.3-1.9 0.6-0.1 1.2 0.4 1.2 1 0.1 0.6-0.4 1.2-1 1.3-5.8 0.5-11.5 1.2-17.2 1.8q-0.1 0-0.1 0zm34.4-3.4c-0.6 0-1.1-0.4-1.1-1-0.1-0.7 0.4-1.2 1-1.3 10.7-0.8 17.4-1.1 17.5-1.1 0.6 0 1.1 0.5 1.2 1.1 0 0.7-0.5 1.2-1.1 1.2-0.1 0-6.7 0.3-17.4 1.1q0 0-0.1 0z"/>
					</g>
					<g id="&lt;Group&gt;">
						<path id="&lt;Path&gt;" class="s16" d="m1214.2 1463.5l26.7-29.6-9.9-21.9 129.3-7.6-141.8 80.3z"/>
						<path id="&lt;Path&gt;" class="s0" d="m1103.6 1506.7l108.1-75.1 148.6-27.2z"/>
						<path id="&lt;Path&gt;" class="s0" d="m1225 1364.7l135.3 39.7-129.3 7.6z"/>
					</g>
				</g>
				<g id="&lt;Group&gt;">
					<g id="&lt;Group&gt;">
						<path id="&lt;Path&gt;" class="s16" d="m1995.1 410l39.4-6.6 5.8-23.3 105.9 74.6-160.9-25.4z"/>
						<path id="&lt;Path&gt;" class="s0" d="m1881.6 374.9l131.4 8.6 133.2 71.2z"/>
						<path id="&lt;Path&gt;" class="s0" d="m2065.1 339.5l81.1 115.2-105.9-74.6z"/>
					</g>
				</g>
				<g id="girl 2 1 ">
					<path id="&lt;Path&gt;" class="s7" d="m2655.5 1218.7c1.2 35.4-30.6 49.2 6.1 112.6 22.3 38.5-39.8 104.7-39.8 104.7 0 0-61.1 69.8-66.6 35.6-5.4-34.2-74.1-109.2-87.8-140.3-13.6-31.1-58.5-53.7-40.1-91.7 18.4-38-36.2-37.4-11.8-97 24.2-59.1 57-61.3 57-61.3 114.6-37.6 181.9 102 183 137.4z"/>
					<path id="&lt;Path&gt;" class="s17" d="m2477 1353.9c-13.1 8.2-148.1 47.4-187.6 43.7-40.1-3.8-154.9-69.7-154.9-69.7l-3.8-25.6c0 0 148.7 44.2 172.9 45.3 24.1 1 151.1-54.4 151.1-54.4 37.9 8.4 35.3 52.4 22.3 60.7z"/>
					<path id="&lt;Path&gt;" class="s8" d="m2472.7 1293.3q0 0 0 0c0 0 4.1-5.4 8.3-6.3 2.4-3 0.8-10.4-0.2-23.2-1.2-16.3-3.7-33.6-3.7-33.6l54.3-14.8 3.3-0.9c2.5 37.7 14 61.9 21.8 67.8 4.3 0.3 9.6 0.6 14.5 1.2 5.1 0.6 14 1.8 23.4 7.2-9.9 40-36.3 98.2-105.2 82.3-18.4-4.3-33-10.9-44.7-19 11.7-33.6 27.5-59.5 28.2-60.7z"/>
					<path id="&lt;Path&gt;" class="s10" d="m2531.4 1215.4c-5.5 16.1-19.8 45.3-50.6 48.4-1.2-16.3-3.7-33.5-3.7-33.5z"/>
					<path id="&lt;Path&gt;" class="s8" d="m2437.9 1155.2c2.6-15.5 10.4-33.4 57.2-34.1 46.7-0.6 39.4 30.5 42.7 75.9 3.2 45.4-69.8 49.5-69.8 49.5-19.1-0.2-32.7-75.9-30.1-91.3z"/>
					<path id="&lt;Path&gt;" class="s18" d="m2655.5 1684.5c-1 74.4-182.5-71.6-182.5-71.6 0 0 35-61.8 4.1-130.5-36.5-81.3-42.3-96.8-38.4-132-23.1-9.8-38.8-38.1-38.8-38.1 0 0 31.2-16.1 42.7-18.3 20.5-3.8 38.4-7 38.4-7-6.3 4.6-5 14.7 2.7 16.6q0.6 0.2 0.9 0.3c16.2 3.1 55.6-22.1 65.9-28.8 33.2-1.4 63.5 0 71.3 15.6 21.5 43.3 0 178-6.6 211.7-8.5 43.1 41.1 126.2 40.3 182.1z"/>
					<path id="&lt;Path&gt;" class="s7" d="m2464 1771.6c-9.9-1.1-18.8-6.5-24.3-14.8q-1.3-1.9-2.8-4.2c-20.7-31.3-28.7-127.1-75.2-229.1-11.3-24.9-52-29.4-63-57.4 0 0-27.3-91.1 52.2-93.8 79.5-2.7 212.8 253.3 214.9 280.2 2.1 26 52.6 136.5-101.8 119.1z"/>
					<path id="&lt;Path&gt;" class="s19" d="m2190.7 1744.7c6.5-4.7 27.4-28.3 32.3-33.9 5.2 3.1 11.1 5.6 16.8 5.9 7.3 0.5 13.9-1.4 19-3.5-4.8 8.9-7.4 15.1-0.8 26 7.4 12.3 3.2 30.3 3.2 30.3h-113.1c2.3-21.4 35.2-19.5 42.6-24.8z"/>
					<path id="&lt;Path&gt;" class="s20" d="m2603.2 1326c0 0 14.8 133.9-80.7 162-95.5 28.1-122.6-123.2-45.5-134.1 77.1-10.9 126.2-27.9 126.2-27.9z"/>
					<path id="&lt;Path&gt;" class="s7" d="m2367.1 1372.3c27.7 18.5 27 91 27 129 0 78-77.3 175.2-115.4 209.5-5.5 5-17.4 16.4-24.5 18.2-0.3 0.1-53.6-14.1-38.5-39.5 47-78.6 73.6-239.8 80.4-290.9 2.7-20.2 54-37.7 71-26.3z"/>
					<path id="&lt;Path&gt;" class="s6" d="m2531.4 1769.5c0 0-4.2-5.8-11.5-16.9-8.7-13.2-18.3-39.1-30-72.3-12.2-34.9-26.8-77.9-45-122.5-5.6-13.8-11.6-27.8-17.9-41.7-11.3-24.9-42.5-21.4-53.6-49.5 0 0-43.2-97.4 36.3-100.1 79.5-2.7 230.5 260.5 239.2 286 9.5 27.9 55.8 143.7-117.5 117z"/>
					<path id="&lt;Path&gt;" class="s7" d="m2273.8 1744.7c6.5-4.7 27.3-28.3 32.2-33.9 5.2 3.1 11.2 5.6 16.8 5.9 7.3 0.5 13.9-1.4 19.1-3.5-4.9 8.9-7.4 15.1-0.8 26 7.4 12.3 3.2 30.3 3.2 30.3h-113.2c2.3-21.4 35.3-19.5 42.7-24.8z"/>
					<path id="&lt;Path&gt;" class="s21" d="m2489.9 1680.3c-12.2-34.9-26.8-77.9-45-122.5 4.8-33.9 15-63.5 32.2-75.4 0 0 41.8 129.5 12.8 197.9z"/>
					<path id="&lt;Path&gt;" class="s6" d="m2404.9 1375.4c27.6 18.4 72.2 87.9 72.2 125.9 0 78-77.3 175.2-115.4 209.5-5.5 5-17.4 16.4-24.5 18.2-0.3 0.1-53.5-14.1-38.4-39.5 46.9-78.6 56.5-243.4 63.3-294.5 2.7-20.3 25.8-31 42.8-19.6z"/>
					<path id="&lt;Path&gt;" class="s22" d="m2272.3 1401.3h-113.4l-44.2-130.2c-4.2-7.3-15.3-10-15.3-10 0 0 95.8-12.8 106.3-13.8 10.6-0.9 16.4 13.8 16.4 13.8z"/>
					<path id="&lt;Path&gt;" class="s23" d="m2610.7 1353.9c-13 8.2-128.5 50.3-197 51.1-34.7 0.4-160.8-80.7-160.8-80.7l11.6-22c0 0 129.6 45.5 145.2 46.3 24.1 1.2 184.7-57.9 184.7-57.9 37.9 8.4 29.4 54.9 16.3 63.2z"/>
					<path id="&lt;Path&gt;" class="s23" d="m2252.9 1324.3c0 0-14.8-6.8-26.4-4.6-11.6 2.1-38.4 0-44.2-9.5-5.8-9.5 13.7-15.8 20.5-17.1 6.9-1.4 26.9-9.8 38.5-9.3 11.6 0.6 23.2 18.5 23.2 18.5z"/>
					<path id="&lt;Path&gt;" class="s23" d="m2229.2 1290.7c0-1.6-9.5-6.3-11.1-11.3-1.6-5-2.6-6.6 2.6-5 5.3 1.5 23.7 10 23.7 10 0 0-15.2 7.9-15.2 6.3z"/>
					<path id="&lt;Path&gt;" class="s0" d="m2465.3 1218.7c14.3 0.7 15.3 8.3 15.3 8.3-19.4 1.6-26.3-1.1-26.3-1.1 0 0 2.8-7.6 11-7.2z"/>
					<path id="&lt;Path&gt;" class="s18" d="m2616.2 1295.1c40.6 55.5-40.9 80.6-40.9 80.6-49.3-10.4-63.6-55.8-63.6-55.8 64.4-54.6 104.5-24.8 104.5-24.8z"/>
					<path id="&lt;Path&gt;" class="s0" d="m2204.9 1247.4c-8.1 1.8-4.6 17.8-4.6 17.8l-103.5 13.8c-8.1-13.8 2.6-17.9 2.6-17.9z"/>
					<path id="&lt;Path&gt;" class="s17" d="m2130 1316.2l3.8 10.9c-19.6-10.7-15.1-30.6-15.1-30.6q0-0.9 0-1.7c0 0-2.1-13.5-1.2-13.2 0.6 0.2 2.4 4.4 3.5 7.1 2.9-6 8.6-15.8 12.2-11.8 5.6 6 5.7 8.3 3.3 18.2-2.5 10-4.2 20.7-6.5 21.1z"/>
					<path id="&lt;Path&gt;" class="s7" d="m2444.5 1129.6l39.5-24.9 74.8 29.5c0 0-1.2 66.7-31.1 63.7-29.9-3.1-32.2-40.7-39.7-56.4-7.4-15.7-22.8-10.4-22.8-10.4z"/>
					<path id="&lt;Path&gt;" class="s7" d="m2465.2 1131.1c0 0-16.9 0.4-20.7 14.6-3.9 14.2 2.1 40.7-7.2 42.6-9.3 1.9-17.8-44.1 0.2-59.1 18.1-15 27.7 1.9 27.7 1.9z"/>
				</g>
				<path id="&lt;Path&gt;" class="s8" d="m1142.4 884.8c0 0 16.9-6.4 18.8-10.8 1.9-4.5 7.5-6.4 14.2-9.4 6.7-3.1 10.7-8.7 11.7-7.9 1 0.8 1.1 4.6-1.5 7.5-2.7 2.9-14.1 23-18.4 25.3-4.3 2.3-24.8-4.7-24.8-4.7z"/>
				<path id="&lt;Path&gt;" class="s2" d="m2892.7 1768.7h-108.4c-5.8-4.9 4-16.1 14.3-16.9 4.5-0.3 10.1 0.6 16.5 2 1.5-19.8 10.1-108.9 42.2-105.3 36.1 4 0 39.2-10.2 60-7.6 15.5-15.6 37.6-19.2 48.1q4.4 1 9 1.8c4.8-14.7 22.6-64.1 45.3-61.2 26.6 3.4 15.9 23.2-3 34.9-13.8 8.7-30.8 21-38.8 26.9 6.8 1.1 13.9 1.9 21.2 1.7 18.6-0.4 27.6 5.1 31.1 8z"/>
				<g id="&lt;Group&gt;">
					<path id="&lt;Path&gt;" class="s2" d="m462.8 1770.9c0 0-41.3-113.2-70.2-103.5-28.9 9.6 70.2 103.5 70.2 103.5z"/>
					<path id="&lt;Path&gt;" class="s2" d="m447 1770.9c-3.5 0-69.3-68.2-73.7-50.4-4.4 17.9 73.7 50.4 73.7 50.4z"/>
					<path id="&lt;Path&gt;" class="s2" d="m352 1770.9c0 0 11.1-14.7 32.7-9.8 21.6 5 36.3-2.2 70.8-8.6 34.4-6.5 61.6 18.4 61.6 18.4z"/>
				</g>
				<path id="&lt;Path&gt;" class="s24" d="m3051.8 1777.3h-2886.2c-1.8 0-3.3-1.5-3.3-3.3v-1.1c0-1.8 1.5-3.2 3.3-3.2h2886.2c1.8 0 3.3 1.4 3.3 3.2v1.1c0 1.8-1.5 3.3-3.3 3.3z"/>
				<g id="&lt;Group&gt;">
					<path id="&lt;Path&gt;" class="s12" d="m1356.3 1725.7h-214.2c-12 0-21.7-9.7-21.7-21.7v-58.4c0-11.9 9.7-21.6 21.7-21.6h214.2c12 0 21.7 9.7 21.7 21.6v58.4c0 12-9.7 21.7-21.7 21.7z"/>
					<g id="&lt;Group&gt;">
						<path id="&lt;Path&gt;" class="s13" d="m1312.7 1649.3h-161.4c-1.8 0-3.2-1.5-3.2-3.3 0-1.8 1.4-3.3 3.2-3.3h161.4c1.8 0 3.3 1.5 3.3 3.3 0 1.8-1.5 3.3-3.3 3.3z"/>
						<path id="&lt;Path&gt;" class="s13" d="m1180 1663.4h-28.7c-1.8 0-3.2-1.5-3.2-3.3 0-1.8 1.4-3.3 3.2-3.3h28.7c1.8 0 3.2 1.5 3.2 3.3 0 1.8-1.4 3.3-3.2 3.3z"/>
						<path id="&lt;Path&gt;" class="s13" d="m1270.1 1663.4h-78.8c-1.8 0-3.3-1.5-3.3-3.3 0-1.8 1.5-3.3 3.3-3.3h78.8c1.8 0 3.3 1.5 3.3 3.3 0 1.8-1.5 3.3-3.3 3.3z"/>
					</g>
					<g id="&lt;Group&gt;">
						<path id="&lt;Path&gt;" class="s13" d="m1312.7 1689.6h-161.4c-1.8 0-3.2-1.5-3.2-3.3 0-1.8 1.4-3.3 3.2-3.3h161.4c1.8 0 3.3 1.5 3.3 3.3 0 1.8-1.5 3.3-3.3 3.3z"/>
						<path id="&lt;Path&gt;" class="s13" d="m1209.9 1703.7h-58.6c-1.8 0-3.2-1.5-3.2-3.3 0-1.8 1.4-3.3 3.2-3.3h58.6c1.8 0 3.3 1.5 3.3 3.3 0 1.8-1.5 3.3-3.3 3.3z"/>
						<path id="&lt;Path&gt;" class="s13" d="m1281.2 1703.7h-58.6c-1.8 0-3.3-1.5-3.3-3.3 0-1.8 1.5-3.3 3.3-3.3h58.6c1.8 0 3.3 1.5 3.3 3.3 0 1.8-1.5 3.3-3.3 3.3z"/>
					</g>
				</g>
			</g>
			<g id="&lt;Group&gt;">
				<g id="&lt;Group&gt;">
					<path id="&lt;Path&gt;" class="s13" d="m1651.3 1151.3h-112.6c-2.5 0-4.4-1.9-4.4-4.4v-2.1c0-2.4 1.9-4.4 4.4-4.4h112.6c2.4 0 4.3 2 4.3 4.4v2.1c0 2.5-1.9 4.4-4.3 4.4z"/>
					<path id="&lt;Path&gt;" class="s13" d="m1852.3 1151.3h-185.9c-3 0-5.4-2.4-5.4-5.4 0-3 2.4-5.5 5.4-5.5h185.9c3 0 5.4 2.5 5.4 5.5 0 3-2.4 5.4-5.4 5.4z"/>
				</g>
				<g id="&lt;Group&gt;">
					<path id="&lt;Path&gt;" class="s13" d="m1888 1176.7h-101.1c-2.3 0-4.2-1.9-4.2-4.2v-2.5c0-2.3 1.9-4.2 4.2-4.2h101.1c2.3 0 4.1 1.9 4.1 4.2v2.5c0 2.3-1.8 4.2-4.1 4.2z"/>
					<path id="&lt;Path&gt;" class="s13" d="m1567 1176.7h-112.6c-2.4 0-4.3-2-4.3-4.4v-2.1c0-2.4 1.9-4.4 4.3-4.4h112.6c2.4 0 4.4 2 4.4 4.4v2.1c0 2.4-2 4.4-4.4 4.4z"/>
					<path id="&lt;Path&gt;" class="s13" d="m1767 1176.7h-185.8c-3 0-5.5-2.4-5.5-5.5 0-3 2.5-5.4 5.5-5.4h185.8c3 0 5.4 2.4 5.4 5.4 0 3.1-2.4 5.5-5.4 5.5z"/>
				</g>
				<g id="&lt;Group&gt;">
					<path id="&lt;Path&gt;" class="s13" d="m1582.3 1125.9h-177.1c-3 0-5.4-2.4-5.4-5.4 0-3 2.4-5.4 5.4-5.4h177.1c3 0 5.4 2.4 5.4 5.4 0 3-2.4 5.4-5.4 5.4z"/>
					<path id="&lt;Path&gt;" class="s13" d="m1764 1125.9h-158.3c-2.8 0-5.1-2.3-5.1-5.1v-0.6c0-2.8 2.3-5.1 5.1-5.1h158.3c2.8 0 5.1 2.3 5.1 5.1v0.6c0 2.8-2.3 5.1-5.1 5.1z"/>
					<path id="&lt;Path&gt;" class="s13" d="m1960.4 1125.9h-177c-3 0-5.5-2.4-5.5-5.4 0-3 2.5-5.4 5.5-5.4h177c3 0 5.5 2.4 5.5 5.4 0 3-2.5 5.4-5.5 5.4z"/>
				</g>
			</g>
		</g>
	</g>
</svg>